<?xml version="1.0" standalone="no"?><!DOCTYPE svg PUBLIC "-//W3C//DTD SVG 1.1//EN" "http://www.w3.org/Graphics/SVG/1.1/DTD/svg11.dtd"><svg t="1557127484631" class="icon" style="" viewBox="0 0 128000 1024" version="1.1" xmlns="http://www.w3.org/2000/svg" p-id="1062" xmlns:xlink="http://www.w3.org/1999/xlink" width="25000" height="200"><defs><style type="text/css"></style></defs><path d="M0 0h6826.666667l-1365.333334 1024H0z" fill="#FB720D" p-id="1063" data-spm-anchor-id="a313x.7781069.0.i1" class=""></path><path d="M12288 0h6826.666667l-1365.333334 1024H10922.666667z" fill="#FB720D" p-id="1064"></path><path d="M24576 0h6826.666667l-1365.333334 1024H23210.666667z" fill="#FB720D" p-id="1065"></path><path d="M36864 0h6826.666667l-1365.333334 1024h-6826.666666z" fill="#FB720D" p-id="1066"></path><path d="M49152 0h6826.666667l-1365.333334 1024h-6826.666666z" fill="#FB720D" p-id="1067"></path><path d="M61440 0h6826.666667l-1365.333334 1024h-6826.666666z" fill="#FB720D" p-id="1068"></path><path d="M73728 0h6826.666667l-1365.333334 1024h-6826.666666z" fill="#FB720D" p-id="1069"></path><path d="M86016 0h6826.666667l-1365.333334 1024h-6826.666666z" fill="#FB720D" p-id="1070"></path><path d="M98304 0h6826.666667l-1365.333334 1024h-6826.666666z" fill="#FB720D" p-id="1071"></path><path d="M110592 0h6826.666667l-1365.333334 1024h-6826.666666z" fill="#FB720D" p-id="1072"></path><path d="M122880 0h5120v1024h-6485.333333z" fill="#FB720D" p-id="1073"></path></svg>