<?xml version="1.0" standalone="no"?><!DOCTYPE svg PUBLIC "-//W3C//DTD SVG 1.1//EN" "http://www.w3.org/Graphics/SVG/1.1/DTD/svg11.dtd"><svg t="1556442678918" class="icon" style="" viewBox="0 0 1024 1024" version="1.1" xmlns="http://www.w3.org/2000/svg" p-id="694" xmlns:xlink="http://www.w3.org/1999/xlink" width="200" height="200"><defs><style type="text/css"></style></defs><path d="M149.34578433 927.969911A3 3 0 1 0 341.33955833 927.969911 3 3 0 1 0 149.34578433 927.969911zM789.32503233 927.969911A3 3 0 1 0 981.31880733 927.969911 3 3 0 1 0 789.32503233 927.969911zM981.31880733 511.983399L981.31880733 127.99585 149.34578433 127.99585C149.34578433 57.310142 92.03564233 0 21.34993433 0l0 63.997925c35.294856 0 63.997925 28.703069 63.997925 63.997925l48.062442 412.050639C104.13125033 563.501728 85.34785933 599.53256 85.34785933 639.979249c0 70.685708 57.310142 127.99585 127.99585 127.99585l767.975098 0 0-63.997925L213.34370933 703.977174c-35.358853 0-63.997925-28.639071-63.997925-63.997925 0-0.223993 0-0.447985 0.031999-0.671978L981.31880733 511.983399z" p-id="695" fill="#FFFFFF"></path></svg>