<?xml version="1.0" standalone="no"?><!DOCTYPE svg PUBLIC "-//W3C//DTD SVG 1.1//EN" "http://www.w3.org/Graphics/SVG/1.1/DTD/svg11.dtd"><svg t="1557727588894" class="icon" style="" viewBox="0 0 1024 1024" version="1.1" xmlns="http://www.w3.org/2000/svg" p-id="1463" xmlns:xlink="http://www.w3.org/1999/xlink" width="200" height="200"><defs><style type="text/css"></style></defs><path d="M512.127995 1018.304231c-29.822788 0-59.581579-2.687891-89.212376-8.127669a28.350848 28.350848 0 1 1 10.239584-55.741736 433.96637 433.96637 0 0 0 299.31584-52.92585l0.191993-0.127995a448.23779 448.23779 0 0 0 210.551446-273.844875 446.381866 446.381866 0 0 0-45.246162-340.146181 446.445863 446.445863 0 0 0-106.107689-124.474943 28.350848 28.350848 0 0 1 35.646552-44.030212 502.251596 502.251596 0 0 1 119.419148 140.026312 502.763575 502.763575 0 0 1 51.005928 383.280429 504.555502 504.555502 0 0 1-236.918375 308.211479 491.500033 491.500033 0 0 1-248.949887 67.901241z m-331.314541-133.434579a28.222853 28.222853 0 0 1-19.327214-7.679688 424.942737 424.942737 0 0 1-87.868431-113.211401 502.763575 502.763575 0 0 1-50.685941-382.704452A504.6195 504.6195 0 0 1 259.850244 72.998634 504.235515 504.235515 0 0 1 537.85495 6.249346a28.350848 28.350848 0 1 1-2.751889 56.637699 447.725811 447.725811 0 0 0-246.837972 59.069601 448.301788 448.301788 0 0 0-210.551446 273.908872 446.317868 446.317868 0 0 0 45.758141 341.106143 369.073006 369.073006 0 0 0 76.668885 98.747988 28.350848 28.350848 0 0 1-19.327215 49.086006zM512.127995 1024c-30.078778 0-60.413546-2.751888-90.236334-8.255665a33.790627 33.790627 0 0 1-27.32689-39.61439 33.790627 33.790627 0 0 1 39.61439-27.262893 428.270602 428.270602 0 0 0 295.411999-52.285876l0.319987-0.127994a442.542022 442.542022 0 0 0 207.799559-270.389016 440.750095 440.750095 0 0 0-44.670186-335.794358 440.814092 440.814092 0 0 0-104.763744-122.939006 34.046617 34.046617 0 0 1 42.878258-52.861852A507.81937 507.81937 0 0 1 951.790134 256.031199a508.395346 508.395346 0 0 1 51.581904 387.568255 510.251271 510.251271 0 0 1-239.542269 311.667338A497.067807 497.067807 0 0 1 512.127995 1024z m-84.156581-64.381385a22.527085 22.527085 0 0 0-22.207098 18.559247 22.527085 22.527085 0 0 0 18.175261 26.430926 489.260124 489.260124 0 0 0 169.721106 1.151953 485.740267 485.740267 0 0 0 164.473318-60.221554 498.987729 498.987729 0 0 0 234.358479-304.819616 497.131804 497.131804 0 0 0-50.429951-378.992604 496.619825 496.619825 0 0 0-118.075203-138.426376 22.719077 22.719077 0 0 0-28.542841 35.19857 451.94964 451.94964 0 0 1 107.387637 126.074878 452.013637 452.013637 0 0 1 45.822139 344.434008 453.293585 453.293585 0 0 1-213.111342 277.236737l-0.191993 0.127995A440.6221 440.6221 0 0 1 432.131245 960.0026a23.039064 23.039064 0 0 0-4.159831-0.383985z m-247.15796-69.117192a33.918622 33.918622 0 0 1-23.231056-9.08763 430.510511 430.510511 0 0 1-88.956386-114.683341 508.459344 508.459344 0 0 1-51.19792-386.928281 510.251271 510.251271 0 0 1 239.670263-311.731336A509.739292 509.739292 0 0 1 538.110939 0.681572a34.046617 34.046617 0 0 1-3.327865 67.901242 442.09404 442.09404 0 0 0-243.702099 58.365629 442.798011 442.798011 0 0 0-207.991551 270.389015 440.686097 440.686097 0 0 0 45.438155 337.074307 363.505233 363.505233 0 0 0 75.516932 97.276048 33.790627 33.790627 0 0 1 1.599935 47.99805 34.110614 34.110614 0 0 1-24.830992 10.879558zM512.383984 11.369138c-88.316412 0-174.072928 22.783074-249.58986 66.557296A498.987729 498.987729 0 0 0 28.371647 382.746051a497.131804 497.131804 0 0 0 50.109965 378.416627l0.127994 0.191992c21.631121 40.894339 49.917972 77.436854 86.716478 111.739461a22.591082 22.591082 0 0 0 38.14245-17.343296 22.527085 22.527085 0 0 0-7.167709-15.807358 374.64078 374.64078 0 0 1-78.26882-101.115892 451.94964 451.94964 0 0 1-45.822139-344.434007A453.357582 453.357582 0 0 1 285.449204 117.156841 453.42158 453.42158 0 0 1 535.359051 57.255274a22.719077 22.719077 0 0 0 2.175912-45.246162 514.859084 514.859084 0 0 0-25.150979-0.639974zM484.481118 414.168774L386.821085 310.045004c-12.991472-12.991472-10.879558-34.686591 2.175912-47.678063 12.991472-13.05547 34.686591-10.879558 47.678063 2.111915L534.271095 368.666623c13.05547 12.991472 10.879558 34.686591-2.175911 47.678063-15.167384 10.879558-34.686591 10.879558-47.678063-2.111914z m24.319012 15.615366a39.678388 39.678388 0 0 1-28.350848-11.647527l-0.127995-0.127995L382.725252 314.012843c-14.719402-14.783399-13.695444-39.742385 2.239909-55.677738 14.783399-14.719402 39.806383-13.823438 55.741735 2.175912l0.127995 0.127995 97.532038 103.995775c14.719402 14.783399 13.695444 39.742385-2.239909 55.677738l-0.319987 0.319987-0.383985 0.255989a46.078128 46.078128 0 0 1-26.750913 8.959636z m-20.287176-19.583204c10.559571 10.431576 26.558921 11.135548 39.998375 1.791927 11.007553-11.391537 11.903516-29.310809 1.855925-39.358401l-0.127995-0.191992L432.643224 268.446694c-11.391537-11.263542-29.438804-12.223503-39.678388-2.111914-11.32754 11.32754-12.287501 29.502801-2.111914 39.678388l0.127994 0.127995L488.448957 410.264933z m0.319987-41.59831l104.059773-97.596036c13.05547-12.991472 34.686591-10.879558 47.74206 2.175912 10.879558 12.991472 10.879558 32.510679-2.175911 45.566149L534.271095 416.280689a34.046617 34.046617 0 0 1-47.678063 0c-13.05547-12.991472-10.879558-34.686591 2.175912-47.678063z m21.695119 63.101436a39.038414 39.038414 0 0 1-27.902867-11.391537 36.094534 36.094534 0 0 1-10.303581-28.158856 43.262242 43.262242 0 0 1 12.479493-27.518882l0.127995-0.191992L588.924875 266.910757c14.719402-14.719402 39.678388-13.695444 55.677738 2.239909l0.319987 0.383984a39.294404 39.294404 0 0 1-2.559896 53.18184l-0.127995 0.127994L538.238934 420.376522a39.038414 39.038414 0 0 1-27.774872 11.32754z m-17.791277-59.0696a31.806708 31.806708 0 0 0-9.087631 20.159181 24.894989 24.894989 0 0 0 7.039714 19.519207 27.838869 27.838869 0 0 0 19.839194 8.063672 27.838869 27.838869 0 0 0 19.839194-8.063672l0.127995-0.127995 103.995775-97.532038a28.030861 28.030861 0 0 0 1.919922-37.630471c-11.32754-11.199545-29.438804-12.159506-39.486396-1.983919l-0.127995 0.127994-104.059772 97.468041z m308.339473-279.476647l147.45001 28.222854c17.343295 4.351823 30.398765 21.695119 26.046942 39.038414v2.175912c-4.351823 17.279298-21.695119 30.334768-39.038414 25.982944l-147.45001-28.158856c-17.343295-4.351823-30.398765-21.695119-26.046942-39.038414v-2.175912c4.351823-17.343295 21.759116-30.334768 39.038414-26.046942z m141.30626 99.70795a31.614716 31.614716 0 0 1-7.551694-0.959961l-147.578004-28.158856a40.446357 40.446357 0 0 1-23.103062-15.99935 33.214651 33.214651 0 0 1-5.503776-26.750913v-2.175912l0.127995-0.447982c4.991797-19.967189 24.702996-33.022658 43.07025-28.478843l147.514007 28.158856a40.446357 40.446357 0 0 1 23.103062 15.99935c5.759766 8.255665 7.679688 17.72728 5.503776 26.750913v2.175912l-0.063997 0.447982a40.446357 40.446357 0 0 1-15.99935 23.039064 34.174612 34.174612 0 0 1-19.519207 6.39974z m-153.593761-35.774547l147.578005 28.158856a26.430926 26.430926 0 0 0 21.631121-4.351823c6.39974-4.415821 11.199545-11.199545 13.183465-18.751238V160.035099l0.063997-0.383985a26.430926 26.430926 0 0 0-4.351823-21.631121 33.534638 33.534638 0 0 0-19.071225-13.247462l-147.578005-28.222853c-14.719402-3.647852-30.52676 6.911719-34.814586 23.167059v2.175911l-0.063997 0.383985a26.430926 26.430926 0 0 0 4.351823 21.631121c4.479818 6.463737 11.455535 11.32754 19.071225 13.247462zM61.522301 808.840741l147.450009 28.158856c17.407293 4.351823 30.398765 21.695119 26.046942 39.038414v2.175912c-4.351823 17.343295-21.695119 30.334768-39.038414 26.046941l-147.45001-28.158856c-17.343295-4.415821-30.334768-21.759116-26.046941-39.038414v-2.239909c2.175912-17.279298 21.759116-30.334768 39.038414-25.982944z m141.178264 99.643952a31.038739 31.038739 0 0 1-7.423698-0.895964L47.698862 879.365876c-19.839194-4.991797-32.894664-24.511004-28.606838-42.750264v-2.175911a33.790627 33.790627 0 0 1 14.911395-23.295054 35.262567 35.262567 0 0 1 28.28685-5.631771l147.514008 28.158856a40.446357 40.446357 0 0 1 23.167059 15.99935c5.631771 8.255665 7.615691 17.72728 5.439779 26.750913v2.239909l-0.063998 0.383985a38.14245 38.14245 0 0 1-35.646552 29.438804z m-153.465765-35.774547l147.578004 28.222854c14.719402 3.647852 30.52676-6.911719 34.814586-23.167059v-2.111914l0.127995-0.447982a26.430926 26.430926 0 0 0-4.415821-21.631121 33.534638 33.534638 0 0 0-19.071225-13.247462l-147.578005-28.158856a28.478843 28.478843 0 0 0-22.783074 4.607812 27.006903 27.006903 0 0 0-12.031511 18.303257v2.367904l-0.063998 0.383984c-3.711849 14.783399 7.039714 30.718752 23.423049 34.878583z m621.670744-386.992278H352.134495a29.630796 29.630796 0 0 1-30.334768-30.398765v-6.463738c0-17.343295 12.991472-30.398765 30.334768-30.398765h318.771049c17.343295 0 30.334768 13.05547 30.334768 30.398765v6.463738a29.630796 29.630796 0 0 1-30.334768 30.398765z m0 5.631771H352.134495a35.19857 35.19857 0 0 1-36.030537-36.030536v-6.463738a35.19857 35.19857 0 0 1 36.030537-36.030536h318.771049a35.19857 35.19857 0 0 1 36.030537 36.030536v6.463738a35.19857 35.19857 0 0 1-36.030537 36.030536z m-318.771049-67.19727a23.87103 23.87103 0 0 0-24.702997 24.702996v6.463738c0 14.335418 10.367579 24.702996 24.702997 24.702996h318.771049a23.87103 23.87103 0 0 0 24.702997-24.702996v-6.463738a23.87103 23.87103 0 0 0-24.702997-24.702996H352.134495z m127.9948 295.731986v-240.630225c0-17.407293 12.927475-30.398765 30.334767-30.398765h6.463738c17.343295 0 30.398765 12.991472 30.398765 30.334768v242.870133a29.630796 29.630796 0 0 1-30.398765 30.398765h-8.639649a32.830666 32.830666 0 0 1-28.158856-32.574676z m36.798505 38.206448H507.520182a38.718427 38.718427 0 0 1-33.022658-38.206448v-240.630225a35.19857 35.19857 0 0 1 36.030536-36.094533h6.463737a35.19857 35.19857 0 0 1 36.030536 36.030536v242.870133a35.19857 35.19857 0 0 1-36.030536 36.030537z m-8.255665-11.32754h8.319662a23.87103 23.87103 0 0 0 24.638999-24.702997V479.190133a23.87103 23.87103 0 0 0-24.702996-24.702997h-6.463738a23.87103 23.87103 0 0 0-24.702996 24.702997v240.694222c0 13.311459 9.791602 24.830991 22.911069 26.878908z m162.233409-109.243562H352.134495a29.630796 29.630796 0 0 1-30.334768-30.398765v-6.463738c0-17.343295 12.991472-30.398765 30.334768-30.398765h318.771049c17.343295 0 30.334768 13.05547 30.334768 30.398765v6.463738a29.630796 29.630796 0 0 1-30.334768 30.398765z m0 5.631771H352.134495a35.19857 35.19857 0 0 1-36.030537-36.030536v-6.463738a35.19857 35.19857 0 0 1 36.030537-36.030536h318.771049a35.19857 35.19857 0 0 1 36.030537 36.030536v6.463738a35.19857 35.19857 0 0 1-36.030537 36.030536zM352.134495 576.018199a23.87103 23.87103 0 0 0-24.702997 24.702997v6.463737c0 14.335418 10.367579 24.702996 24.702997 24.702997h318.771049a23.87103 23.87103 0 0 0 24.702997-24.702997v-6.463737a23.87103 23.87103 0 0 0-24.702997-24.702997H352.134495z" fill="#D4B792" p-id="1464"></path></svg>