<?xml version="1.0" standalone="no"?><!DOCTYPE svg PUBLIC "-//W3C//DTD SVG 1.1//EN" "http://www.w3.org/Graphics/SVG/1.1/DTD/svg11.dtd"><svg t="1557450624770" class="icon" style="" viewBox="0 0 1024 1024" version="1.1" xmlns="http://www.w3.org/2000/svg" p-id="3971" xmlns:xlink="http://www.w3.org/1999/xlink" width="200" height="200"><defs><style type="text/css"></style></defs><path d="M512 112.29c-220.91 0-400 179.08-400 400 0 147.52 79.91 276.31 198.77 345.62C280.33 706.27 373 588.78 425.1 536.55A64.29 64.29 0 0 1 418 534l-15.71-6.85c-9.39-4.09-20.86-14.92-25.48-24.07l-14-27.65c-4.62-9.14-0.42-14 9.33-10.91l29.5 9.51c9.75 3.15 22.23 12.79 27.73 21.43l9.21 14.45a64.77 64.77 0 0 1 4.9 9.23q3.66-3.27 6.49-5.66c0.78-0.69 1.56-1.33 2.35-2 1.86-1.55 3.72-3.1 5.59-4.51a99.3 99.3 0 0 0-39.54-54.59c-7.77-4.95-18.88-9.83-24.87-12.31-1.19-0.46-2.36-0.94-3.51-1.43a43.64 43.64 0 0 0-18.79-2.95C291.24 442 265 402.62 256.69 381c0-0.07 0-0.13-0.07-0.2-5-13.83 3.71-2.8 3.71-2.8 26.25 33.06 62.81 37.75 84.89 37.05 5.2-0.45 3.67-3.61 1.87-5.85-0.72-0.75-1.46-1.5-2.15-2.26-16.38-18-26.12-38.72-31.89-56.77-8-26.36-8.46-46.94-7.68-58.64 4.38-45.84 26.58-79.19 39.57-95.15l0.11-0.12c1-1.13 8.47-9.52 3.35 1.74l-0.52 1.12c-25.23 53.27-26.81 88.65-25.32 105.58 0 0.29 0.05 0.56 0.08 0.84 0.27 2 1.46 6.59 6.43 4.47 11.24-5.7 27.2-17.57 38.29-41.49s4-9.5 3.16 1.33c-2.25 14.58-9.86 40-35.48 56.33l-0.32 0.18a0.44 0.44 0 0 0-0.15 0.1 9.48 9.48 0 0 0-4 12.06c10.56 29.52 34.12 63.34 87.81 81.06 0.31 0.1 0.59 0.22 0.9 0.32 3.08 1 13.74 3.81 22.34-3.57 12.54-10.66 27.14-29.91 33.09-63.54s2.56-14.4 4.32-0.07v0.07c1.08 18.84-1.38 50-24.13 74.78s-6.47 6.51 0.76 12.08l0.16 0.12c0.11 0.09 0.19 0.17 0.3 0.25 19.13 15.4 30.3 34.23 36.59 48.38a75.22 75.22 0 0 1 38.55 0.16c6.28-14.16 17.46-33.08 36.66-48.54a2.48 2.48 0 0 0 0.3-0.25 1.77 1.77 0 0 0 0.17-0.12c7.23-5.57 0.76-12.08 0.76-12.08-22.73-24.72-25.15-55.86-24.15-74.7s0 0 0-0.07c1.77-14.33 4.32 0.07 4.32 0.07 5.94 33.63 20.55 52.88 33.09 63.54 8.59 7.38 19.26 4.6 22.35 3.57 0.3-0.1 0.58-0.22 0.89-0.32 53.69-17.72 77.25-51.54 87.81-81.06a9.5 9.5 0 0 0-4-12.06 0.59 0.59 0 0 0-0.16-0.1l-0.31-0.18c-25.61-16.38-33.23-41.75-35.49-56.33-0.85-10.83 3.16-1.33 3.16-1.33 11.1 23.92 27 35.79 38.3 41.49 5 2.12 6.15-2.48 6.43-4.47 0-0.28 0.05-0.55 0.08-0.84 1.48-16.93-0.09-52.31-25.33-105.58-0.17-0.38-0.34-0.75-0.52-1.12-5.13-11.26 2.35-2.87 3.35-1.74l0.1 0.12c13 16 35.19 49.31 39.57 95.15 0.79 11.7 0.35 32.28-7.67 58.64-5.77 18.05-15.52 38.81-31.9 56.77-0.69 0.76-1.42 1.51-2.14 2.26-1.81 2.24-3.34 5.4 1.87 5.85 22.07 0.7 58.63-4 84.89-37.05s8.66-11 3.7 2.8c0 0.07 0 0.13-0.06 0.2-8.33 21.6-34.56 60.94-114.52 54.65a43.64 43.64 0 0 0-18.79 2.95c-1.16 0.49-2.31 1-3.5 1.43-6 2.48-17.11 7.36-24.87 12.31a99.28 99.28 0 0 0-39.59 54.75l144.28 101a67.2 67.2 0 0 1 9.7 8.13s0.28 0.28 0.71 0.77c1.77 2 6.28 7.95 5.9 14.79a15.11 15.11 0 0 1-3 8.06 16.92 16.92 0 0 1-1.38 1.67 17.65 17.65 0 0 1-2.11 2l-0.07 0.07c-6.44 4.9-15.3 5.59-15.3 5.59s-8.67 8.76-18.21 13l-0.17 0.11c-0.37 0.18-0.79 0.27-1.17 0.42-0.61 0.24-1.2 0.46-1.8 0.65-0.45 0.13-0.89 0.28-1.35 0.37a17.71 17.71 0 0 1-5.49 0.63c-0.19 0-0.35 0-0.53-0.07-7.87-0.07-16.46-2.85-23-5.64h0.09c-0.62-0.24-1.35-0.57-2.11-0.93-2.94-1.4-6.71-3.6-10.07-5.64l-0.24-0.15c-0.38-0.23-0.77-0.46-1.12-0.69-1-0.59-1.83-1.13-2.64-1.65a100.5 100.5 0 0 0-9.39-4.78 56.86 56.86 0 0 0-6.54-2.71c-11.51-4-35.84-9.26-53.77 9.81a75.859 75.859 0 0 0-4 4.8c-0.45 0.61-0.91 1.2-1.35 1.86-20.49 29.51-23.09 88.47 145.92 176.6 8.78 3 17.83 6 27.43 8.94 106.65-71.84 176.8-193.7 176.8-332C912 291.37 733 112.29 512 112.29z" fill="#FB720D" p-id="3972"></path><path d="M503.37 543.11s8.64 22.26 55.8 23c0 0.05 2.36-36.89-55.8-23z" fill="#FB720D" p-id="3973"></path></svg>