<?xml version="1.0" standalone="no"?><!DOCTYPE svg PUBLIC "-//W3C//DTD SVG 1.1//EN" "http://www.w3.org/Graphics/SVG/1.1/DTD/svg11.dtd"><svg t="1562724446012" class="icon" viewBox="0 0 1024 1024" version="1.1" xmlns="http://www.w3.org/2000/svg" p-id="5044" xmlns:xlink="http://www.w3.org/1999/xlink" width="200" height="200"><defs><style type="text/css"></style></defs><path d="M748 479.15a32 32 0 0 0-32 32v192a53.39 53.39 0 0 1-53.34 53.33H321.29A53.39 53.39 0 0 1 268 703.15V361.81a53.39 53.39 0 0 1 53.33-53.33h192a32 32 0 0 0 0-64h-192A117.46 117.46 0 0 0 204 361.81v341.34a117.47 117.47 0 0 0 117.29 117.33h341.33A117.48 117.48 0 0 0 780 703.15v-192a32 32 0 0 0-32-32z" p-id="5045" fill="#FB720D"></path><path d="M832 191.56a32 32 0 0 0-45.25 0L515.23 463.09a32 32 0 1 0 45.25 45.25L832 236.81a32 32 0 0 0 0-45.25z" p-id="5046" fill="#FB720D"></path></svg>