<?xml version="1.0" standalone="no"?><!DOCTYPE svg PUBLIC "-//W3C//DTD SVG 1.1//EN" "http://www.w3.org/Graphics/SVG/1.1/DTD/svg11.dtd"><svg t="1557213414061" class="icon" style="" viewBox="0 0 1024 1024" version="1.1" xmlns="http://www.w3.org/2000/svg" p-id="1236" xmlns:xlink="http://www.w3.org/1999/xlink" width="200" height="200"><defs><style type="text/css"></style></defs><path d="M512 1024a511.99936 511.99936 0 1 0-511.99936-524.287345v24.57597A511.99936 511.99936 0 0 0 512 1024zM296.896269 341.312853a33.791958 33.791958 0 0 1 47.80794-47.80794L512 464.1927l170.687787-167.231791a33.791958 33.791958 0 0 1 47.74394 47.80794L559.67994 512.00064l167.295791 170.687787a33.791958 33.791958 0 0 1-47.80794 47.74394L512 559.80858 341.312213 727.040371a33.791958 33.791958 0 0 1-47.80794-47.80794L464.12806 512.00064z" fill="#E95F5C" p-id="1237"></path></svg>