<?xml version="1.0" standalone="no"?><!DOCTYPE svg PUBLIC "-//W3C//DTD SVG 1.1//EN" "http://www.w3.org/Graphics/SVG/1.1/DTD/svg11.dtd"><svg t="1563341003962" class="icon" viewBox="0 0 1024 1024" version="1.1" xmlns="http://www.w3.org/2000/svg" p-id="4922" xmlns:xlink="http://www.w3.org/1999/xlink" width="200" height="200"><defs><style type="text/css"></style></defs><path d="M627.996346 453.337501 676.143144 453.337501 693.65107 453.337501 702.405034 426.999268 702.405034 405.05074C681.952735 405.05074 657.131372 421.16485 627.996346 453.337501L627.996346 453.337501ZM833.714483 1.197842C862.849509 1.197842 905.186715 40.705191 960.64695 119.719888L960.64695 137.27871C890.615244 189.955176 855.59939 228.017811 855.59939 251.411051L807.452593 304.087516C862.849509 315.811919 890.615244 327.544261 890.615244 339.20516L846.845428 378.712509 803.075611 378.712509C776.813721 381.657501 763.682776 389.000137 763.682776 400.661035 778.246332 424.117779 805.948747 438.723672 846.845428 444.55809L855.59939 453.337501C829.337501 465.069843 816.206556 482.620726 816.206556 506.013966L816.206556 563.080137 859.976373 563.080137 890.615244 554.300726 890.615244 563.080137 894.992225 554.300726C953.333512 563.080137 982.531859 574.804539 982.531859 589.418368 962.079561 615.756601 915.373289 628.925718 842.468445 628.925718 824.960519 628.925718 816.206556 645.039827 816.206556 677.212478L794.321648 791.344818 803.075611 844.021284C785.567685 937.641873 765.123302 997.660973 741.797869 1023.999206L737.420886 1023.999206C696.524206 1023.999206 676.143144 966.933035 676.143144 852.800695L680.520125 650.874245 518.571805 655.26395 487.932932 655.26395 444.163117 642.094834 391.639337 703.55071C409.147263 703.55071 417.901227 707.940416 417.901227 716.719827 397.456844 722.617749 375.564021 740.176571 352.246502 769.396291 285.087932 807.458927 213.615701 826.462462 137.774402 826.462462L129.020438 826.462462C94.004585 826.462462 63.365714 807.458927 37.103824 769.396291L50.234769 756.227176 72.119677 769.396291 269.083851 729.888943C269.083851 715.283051 260.329888 699.161005 242.821961 681.602183L199.052144 699.161005 164.036291 681.602183 150.905347 681.602183 129.020438 690.381594C85.250622 678.720695 63.365714 650.874245 63.365714 606.97719L58.988732 606.97719 63.365714 563.080137 63.365714 492.84485 58.988732 462.116911 72.119677 462.116911C107.13553 494.353067 136.270556 557.245718 159.65931 650.874245L172.790255 650.874245C199.052144 636.260416 212.183089 602.587485 212.183089 549.911021 180.040373 544.076601 164.036291 536.741904 164.036291 527.962493L164.036291 519.183082C175.663391 519.183082 188.794335 510.403672 203.429127 492.84485L216.560072 492.84485C216.560072 466.506617 229.691017 453.337501 255.952906 453.337501L277.837814 453.337501C309.909296 459.235423 325.984612 475.286028 325.984612 501.624261L308.476686 624.536012 317.230648 624.536012C369.754428 566.025128 396.016318 488.455144 396.016318 391.881624L378.508392 387.491919C349.310045 405.05074 317.230648 413.830151 282.214796 413.830151L190.298182 413.830151 177.167236 400.661035C209.238718 383.102215 242.821961 342.150151 277.837814 277.749284L352.246502 168.006649 343.492538 163.616943 325.984612 163.616943 137.774402 356.763982 133.39742 356.763982C74.992813 356.763982 45.857787 334.815455 45.857787 290.9184L45.857787 277.749284 133.39742 163.616943C159.65931 163.616943 181.544218 124.109594 199.052144 45.094896L203.429127 40.705191 229.691017 40.705191C288.024388 90.500167 317.230648 122.664881 317.230648 137.27871L330.361593 137.27871C347.869521 137.27871 374.131411 125.617811 409.147263 102.161067 441.218746 102.161067 474.801988 122.664881 509.817841 163.616943L509.817841 181.175765C509.817841 192.900167 463.103654 236.797222 369.754428 312.866927 369.754428 321.646338 361.000466 326.036044 343.492538 326.036044L356.623483 339.20516 378.508392 330.425749C439.786135 330.425749 480.61158 355.319268 501.063877 405.05074L509.817841 431.388973C495.183051 519.183082 479.17897 580.638957 461.671043 615.756601L470.425006 615.756601 689.274089 580.638957 693.65107 576.249252 693.65107 519.183082 680.520125 506.013966 571.095585 527.962493 549.210676 501.624261 557.96464 479.675733 549.210676 462.116911C601.734456 444.55809 627.996346 429.944261 627.996346 418.219857L601.734456 418.219857 584.22653 431.388973 575.472566 431.388973 544.833695 400.661035 544.833695 387.491919C576.905176 384.610432 616.298011 355.319268 663.012199 299.697811 674.639298 299.697811 680.520125 293.863393 680.520125 282.138989 671.766161 282.138989 667.38918 276.304571 667.38918 264.580167L623.619364 277.749284C591.476647 245.576633 575.472566 211.903702 575.472566 176.78606 581.290073 130.007516 590.044037 106.542834 601.734456 106.542834L627.996346 106.542834C671.766161 127.054586 693.65107 176.78606 693.65107 255.800756L693.65107 268.969873 698.028051 268.969873C753.424967 184.120756 794.321648 103.669284 820.583538 27.536074L816.206556 5.587547 820.583538 1.197842 833.714483 1.197842Z" p-id="4923" fill="#22C12D"></path></svg>