<?xml version="1.0" standalone="no"?><!DOCTYPE svg PUBLIC "-//W3C//DTD SVG 1.1//EN" "http://www.w3.org/Graphics/SVG/1.1/DTD/svg11.dtd"><svg t="1563341682634" class="icon" viewBox="0 0 1024 1024" version="1.1" xmlns="http://www.w3.org/2000/svg" p-id="8275" xmlns:xlink="http://www.w3.org/1999/xlink" width="200" height="200"><defs><style type="text/css"></style></defs><path d="M475.798 285.212v177.971h-369.213v-142.868c0-22.487 17.981-40.468 40.509-40.468h168.264c-45.179-9.462-79.094-28.795-80.323-64.471-1.27-42.066 46.162-110.019 115.466-94.495 71.516 16.097 121.487 71.434 159.744 118.825 38.625-48.374 93.348-110.633 168.018-120.463 62.382-7.864 113.951 54.395 107.315 95.478-5.693 36.004-40.182 55.624-84.214 65.085h166.134c22.528 0 40.509 18.022 40.509 40.468v142.828h-369.254l-0.778-179.855M358.12 158.154c-34.529-13.64-54.764 0.983-69.304 24.986-7.905 13.558-16.425 31.621-3.809 44.851 33.219 34.161 124.314 31.621 185.426 25.272-28.795-35.963-64.225-76.145-112.312-95.109zM735.567 227.745c23.716-30.351-22.774-93.594-72.745-70.205-47.8 22.446-82.289 59.105-111.985 95.15 25.6 2.253 51.528 2.826 77.21 1.597 31.293-1.311 89.211-3.482 107.52-26.542zM478.338 890.478h-300.933c-20.234 0-36.7-16.384-36.7-36.946v-361.554h337.674v398.5zM873.847 853.491c0 20.562-16.425 36.946-36.7 36.946h-300.892v-398.5h337.592v361.554z" p-id="8276" fill="#6B5EC8"></path></svg>