<?xml version="1.0" standalone="no"?><!DOCTYPE svg PUBLIC "-//W3C//DTD SVG 1.1//EN" "http://www.w3.org/Graphics/SVG/1.1/DTD/svg11.dtd"><svg t="1557127559436" class="icon" style="" viewBox="0 0 59076 1024" version="1.1" xmlns="http://www.w3.org/2000/svg" p-id="1372" xmlns:xlink="http://www.w3.org/1999/xlink" width="11538.28125" height="200"><defs><style type="text/css"></style></defs><path d="M5041.230769 0H1102.769231L472.615385 1024h3938.461538zM15753.846154 0h-3938.461539l-630.153846 1024h3938.461539zM26466.461538 0h-3938.461538l-630.153846 1024h3938.461538zM37179.076923 0h-3938.461538l-630.153847 1024h3938.461539zM47891.692308 0h-3938.461539l-630.153846 1024h3938.461539z" fill="#CCDEFF" p-id="1373"></path><path d="M10397.538462 0H6459.076923l-630.153846 1024h3938.461538zM21110.153846 0h-3938.461538l-630.153846 1024h3938.461538zM31822.769231 0h-3938.461539l-630.153846 1024h3938.461539zM42535.384615 0h-3938.461538l-630.153846 1024h3938.461538zM53248 0h-3938.461538l-630.153847 1024h3938.461539z" fill="#ACE6E6" p-id="1374"></path><path d="M58604.307692 0h-3938.461538l-630.153846 1024h3938.461538z" fill="#CCDEFF" p-id="1375"></path></svg>