<?xml version="1.0" standalone="no"?><!DOCTYPE svg PUBLIC "-//W3C//DTD SVG 1.1//EN" "http://www.w3.org/Graphics/SVG/1.1/DTD/svg11.dtd"><svg t="1557827231359" class="icon" style="" viewBox="0 0 1026 1024" version="1.1" xmlns="http://www.w3.org/2000/svg" p-id="21494" xmlns:xlink="http://www.w3.org/1999/xlink" width="200.390625" height="200"><defs><style type="text/css"></style></defs><path d="M514.56 512m-512 0a512 512 0 1 0 1024 0 512 512 0 1 0-1024 0Z" fill="#68D9F8" p-id="21495"></path><path d="M296.96 48.128L50.688 294.4c-16.384 34.304-28.672 71.168-36.864 109.056L406.528 11.264C368.128 19.456 331.776 32.256 296.96 48.128zM514.56 0c-8.192 0-16.384 0-24.576 0.512L3.072 487.424C2.56 495.616 2.56 503.808 2.56 512c0 15.872 0.512 31.232 2.048 46.592L561.152 2.048c-15.36-1.536-30.72-2.048-46.592-2.048zM616.96 10.24L12.8 614.4c4.096 19.456 9.216 38.4 15.36 57.344L674.304 25.6c-18.944-6.144-37.888-11.264-57.344-15.36zM726.528 46.08L48.64 723.968c7.68 16.384 15.872 32.256 24.576 47.616L774.144 70.656c-15.36-9.216-31.232-17.408-47.616-24.576zM814.592 96.768L99.328 812.032c10.24 13.824 20.992 27.136 32.256 39.936L854.528 129.024c-12.8-11.264-26.112-22.016-39.936-32.256zM891.392 165.376L167.936 888.832c12.8 11.776 25.6 22.528 39.424 32.768l716.8-716.8c-10.24-13.824-21.504-27.136-32.768-39.424zM951.296 244.224L246.784 948.736c15.36 9.216 30.72 17.92 47.104 25.6L976.384 291.328c-7.68-16.384-15.872-31.744-25.088-47.104zM997.888 342.528L345.088 995.328c18.432 6.656 36.864 11.776 56.32 16.384L1013.76 398.336c-4.096-18.944-9.728-37.888-15.872-55.808zM1026.56 512c0-20.48-1.024-40.96-3.584-60.928L453.632 1020.416c19.968 2.56 40.448 3.584 60.928 3.584h7.68l503.808-503.808c0.512-3.072 0.512-5.632 0.512-8.192zM1018.88 599.552l-417.28 417.28c34.816-6.144 68.608-15.36 100.352-28.16l288.256-288.256c13.312-32.256 23.04-66.048 28.672-100.864z" fill="#B8FCFF" p-id="21496"></path><path d="M514.56 512m-452.096 0a452.096 452.096 0 1 0 904.192 0 452.096 452.096 0 1 0-904.192 0Z" fill="#04A3FE" p-id="21497"></path><path d="M722.432 357.888h-103.936V288.256c0-18.944-15.36-34.816-34.816-34.816H445.44c-18.944 0-34.816 15.36-34.816 34.816v69.12H307.2c-37.888 0-69.12 31.232-69.12 69.12v276.992c0 37.888 31.232 69.12 69.12 69.12h415.744c37.888 0 69.12-31.232 69.12-69.12v-276.48c0-38.4-31.232-69.12-69.632-69.12M445.44 288.256h138.752v69.12H445.44V288.256z m207.872 311.808h-103.936v103.936H480.256v-103.936H376.32v-69.12h103.936V427.008h69.12v103.936h103.936v69.12z" fill="#FFFFFF" p-id="21498"></path></svg>