<?xml version="1.0" standalone="no"?><!DOCTYPE svg PUBLIC "-//W3C//DTD SVG 1.1//EN" "http://www.w3.org/Graphics/SVG/1.1/DTD/svg11.dtd"><svg t="1563341305162" class="icon" viewBox="0 0 1057 1024" version="1.1" xmlns="http://www.w3.org/2000/svg" p-id="11494" xmlns:xlink="http://www.w3.org/1999/xlink" width="206.4453125" height="200"><defs><style type="text/css"></style></defs><path d="M680.624262 763.383607c95.71882-55.07777 153.784656-133.791475 169.631476-240.304263 4.179934-28.638426 13.395934-43.259803 42.051147-50.058492 33.842361-8.007344 66.459279-21.218623 101.510295-32.835147 7.604459 124.525115-27.446557 233.069115-103.910819 328.401836-50.276721 62.648656-113.345049 108.124328-187.459148 139.549377-10.374295 4.431738-20.194623 15.024262-26.002885 25.012459-41.262164 69.90059-123.752918 104.548721-200.653639 83.330098-79.905574-22.225836-133.774689-93.133639-132.566033-174.432524 1.208656-75.087738 51.283934-142.772459 123.165377-166.173377 74.684852-24.223475 152.978885 1.577967 199.831082 66.089967 4.599607 6.379016 8.594885 12.791607 14.403147 21.420066M198.253115 419.537836c-13.412721 115.745574 18.415213 213.075934 100.922754 293.367607 6.614033 6.41259 11.415082 19.825311 9.618885 28.436983-8.813115 42.437246-20.228197 84.50518-31.441836 129.342951-45.056-25.029246-81.500328-58.065836-112.740721-96.52459-93.502951-114.536918-127.546754-244.870295-102.517508-390.865836 1.812984-10.810754-1.796197-25.230689-8.208787-34.429902C12.841967 289.590557 4.63318 226.908328 35.470689 162.027016 66.089967 97.750033 120.966295 65.720656 191.034754 61.104262c86.50282-5.808262 171.81377 68.691934 181.231213 156.185181 10.02177 94.107279-52.274361 180.626885-141.782033 196.641573-10.407869 1.796197-20.412852 3.60918-32.230819 5.60682m493.819803-233.287344c-82.893639-46.650754-167.835279-56.873967-256.721836-32.633705-15.62859 4.196721-23.031607 1.393311-31.441836-11.213639-22.024393-33.422689-45.056-66.274623-69.09482-101.10741C392.494164 14.856393 450.962885 2.635541 512.033574 1.24223 608.74282-1.175082 697.646164 23.854164 779.75082 74.919869c8.427016 5.203934 22.444066 5.992918 32.449049 3.407738 94.728393-23.837377 192.830951 31.441836 217.658754 123.551475 25.851803 95.886689-28.235541 193.233836-122.762492 219.656393-65.468852 18.21377-123.920787 3.206295-172.401311-44.065573-51.267148-49.857049-64.075541-110.743082-46.466099-179.015345 0.822557-3.390951 2.014426-6.597246 3.844197-12.204065" p-id="11495" fill="#00BCCD"></path></svg>