<?xml version="1.0" standalone="no"?><!DOCTYPE svg PUBLIC "-//W3C//DTD SVG 1.1//EN" "http://www.w3.org/Graphics/SVG/1.1/DTD/svg11.dtd"><svg t="1556086830677" class="icon" style="" viewBox="0 0 1024 1024" version="1.1" xmlns="http://www.w3.org/2000/svg" p-id="833" xmlns:xlink="http://www.w3.org/1999/xlink" width="200" height="200"><defs><style type="text/css"></style></defs><path d="M512 955.733333c-121.890133 0-227.293867-43.605333-313.2928-129.5872C112.145067 739.584 68.266667 633.9072 68.266667 512c0-121.924267 43.895467-227.345067 130.491733-313.326933C284.654933 112.162133 389.7856 68.266667 511.146667 68.266667c122.743467 0 228.437333 43.8784 314.999466 130.440533C912.128 284.706133 955.733333 390.109867 955.733333 512c0 121.873067-43.588267 227.549867-129.536 314.112C739.549867 912.145067 633.873067 955.733333 512 955.733333z m0-853.333333c-112.776533 0-209.7664 40.516267-289.109333 120.405333C142.916267 302.2336 102.4 399.5136 102.4 512c0 112.520533 40.533333 210.090667 120.439467 290.013867C302.199467 881.373867 399.496533 921.6 512 921.6c112.5376 0 210.1248-40.2432 290.048-119.637333C881.3568 722.1248 921.6 624.5376 921.6 512c0-112.503467-40.226133-209.800533-119.586133-289.160533C722.090667 142.933333 624.520533 102.4 512 102.4z" p-id="834" fill="#FB720D"></path><path d="M680.96 546.133333H340.48a34.133333 34.133333 0 0 1 0-68.266666H680.96a34.133333 34.133333 0 0 1 0 68.266666z" p-id="835" fill="#FB720D"></path></svg>