<?xml version="1.0" standalone="no"?><!DOCTYPE svg PUBLIC "-//W3C//DTD SVG 1.1//EN" "http://www.w3.org/Graphics/SVG/1.1/DTD/svg11.dtd"><svg t="1556524288967" class="icon" style="" viewBox="0 0 1024 1024" version="1.1" xmlns="http://www.w3.org/2000/svg" p-id="3264" xmlns:xlink="http://www.w3.org/1999/xlink" width="200" height="200"><defs><style type="text/css"></style></defs><path d="M769.093914 420.672992c0 34.753525 0 69.520353 0 104.274902-53.132104 0-106.277512 0-159.408593 0-11.676947 23.805172-15.739473 44.470841-15.582907 83.900875 58.325383 0 116.668163 0 174.9915 0 0 34.756595 0 69.520353 0 104.276948-58.323337 0-116.666116 0-174.9915 0 0 51.133587 0 102.283548 0 153.415089-55.9288 0-111.873973 0-167.800727 0 0-51.131541 0-102.281501 0-153.415089-57.926294 0-115.868961 0-173.793208 0 0-34.757618 0-69.521377 0-104.276948 57.924247-0.400113 115.866914-0.800225 173.793208-1.197268 0.808412-42.569538-3.955078-55.897078-15.58086-82.703607-52.734038 0-105.483426 0-158.213371 0 0-34.754548 0-69.521377 0-104.274902 35.153638 0 70.320579 0 105.474216 0C301.653783 315.608098 245.30952 210.511481 188.982654 105.445564c0-0.399089 0-0.799202 0-1.198292 59.523675 0 119.064746 0 178.588421 0 39.946804 87.087451 79.907934 174.201507 119.857808 261.289981 17.178241 0 34.360576 0 51.537793 0 27.964912-61.920258 55.935963-123.859959 83.900875-185.779194 9.905604-22.574135 17.97642-58.748009 34.759665-75.510788 59.121516 0 118.262474 0 177.388083 0-56.726979 105.465007-113.470331 210.960713-170.19731 316.424696C699.572538 420.672992 734.338343 420.672992 769.093914 420.672992z" p-id="3265" fill="#FB720D"></path></svg>