<?xml version="1.0" standalone="no"?><!DOCTYPE svg PUBLIC "-//W3C//DTD SVG 1.1//EN" "http://www.w3.org/Graphics/SVG/1.1/DTD/svg11.dtd"><svg t="1563341809699" class="icon" viewBox="0 0 1024 1024" version="1.1" xmlns="http://www.w3.org/2000/svg" p-id="9677" xmlns:xlink="http://www.w3.org/1999/xlink" width="200" height="200"><defs><style type="text/css"></style></defs><path d="M386.867 505.446H250.266c-54.375 0-98.51-44.236-98.51-98.508V270.234c0-54.375 44.238-98.51 98.51-98.51H386.97c54.374 0 98.508 44.238 98.508 98.51v136.704c0 54.272-44.236 98.508-98.61 98.508zM250.266 222.822c-26.112 0-47.31 21.197-47.31 47.31v136.703c0 26.112 21.198 47.309 47.31 47.309H386.97c26.112 0 47.308-21.197 47.308-47.309V270.234c0-26.112-21.196-47.31-47.308-47.31H250.266zM386.867 880.23H250.266c-54.375 0-98.51-44.236-98.51-98.508V644.915c0-54.374 44.238-98.509 98.51-98.509H386.97c54.374 0 98.508 44.237 98.508 98.51v136.703c0 54.375-44.236 98.611-98.61 98.611zM250.266 597.606c-26.112 0-47.31 21.197-47.31 47.31v136.703c0 26.112 21.198 47.309 47.31 47.309H386.97c26.112 0 47.308-21.197 47.308-47.309V644.915c0-26.112-21.196-47.309-47.308-47.309H250.266zM764.723 880.23H628.02c-54.374 0-98.509-44.236-98.509-98.508V644.915c0-54.374 44.237-98.509 98.51-98.509h136.703c54.375 0 98.509 44.237 98.509 98.51v136.703c0.102 54.375-44.134 98.611-98.509 98.611zM628.02 597.606c-26.112 0-47.309 21.197-47.309 47.31v136.703c0 26.112 21.197 47.309 47.31 47.309h136.703c26.112 0 47.309-21.197 47.309-47.309V644.915c0-26.112-21.197-47.309-47.309-47.309H628.02z m68.403-63.897c-26.419 0-51.097-10.24-69.734-28.775l-96.666-96.665c-18.534-18.535-28.774-43.315-28.774-69.735 0-26.419 10.24-51.097 28.774-69.734l96.666-96.666c18.534-18.534 43.315-28.774 69.734-28.774 26.42 0 51.098 10.24 69.735 28.774l96.665 96.666c18.535 18.534 28.775 43.315 28.775 69.734 0 26.42-10.24 51.098-28.775 69.735l-96.768 96.563c-18.534 18.637-43.315 28.877-69.632 28.877z m0-339.149c-12.697 0-24.576 4.915-33.484 13.824l-96.666 96.666c-18.432 18.432-18.432 48.537 0 66.97l96.666 96.665c8.908 8.909 20.787 13.824 33.484 13.824 12.698 0 24.576-4.915 33.485-13.824l96.666-96.666c18.432-18.432 18.432-48.537 0-66.97l-96.666-96.665c-8.909-8.909-20.787-13.824-33.485-13.824z" p-id="9678" fill="#868686"></path></svg>