<?xml version="1.0" standalone="no"?><!DOCTYPE svg PUBLIC "-//W3C//DTD SVG 1.1//EN" "http://www.w3.org/Graphics/SVG/1.1/DTD/svg11.dtd"><svg t="1557832974689" class="icon" style="" viewBox="0 0 1133 1024" version="1.1" xmlns="http://www.w3.org/2000/svg" p-id="1530" xmlns:xlink="http://www.w3.org/1999/xlink" width="221.2890625" height="200"><defs><style type="text/css"></style></defs><path d="M563.069054 1022.690537a52.705882 52.705882 0 0 1-32.736573-12.439898 3222.915601 3222.915601 0 0 0-110.976982-94.608695 756.542199 756.542199 0 0 0-134.219949-98.209719h-242.25064A42.88491 42.88491 0 0 1 0 775.856777V247.161125a42.88491 42.88491 0 0 1 42.88491-42.88491h217.043479a918.588235 918.588235 0 0 0 147.314578-98.209719C466.496164 62.85422 521.16624 19.641944 531.641944 11.457801a49.104859 49.104859 0 0 1 32.736573-11.130435 51.069054 51.069054 0 0 1 21.933503 4.910486 50.414322 50.414322 0 0 1 28.153453 45.17647l1.636829 491.048594a43.212276 43.212276 0 0 1-86.424553 0V127.672634c-18.005115 13.749361-37.974425 28.808184-58.271099 43.539642C320.163683 281.861893 285.462916 290.700767 261.892583 290.700767H98.209719c-9.493606 0-11.130435 0-11.130435 16.040921v405.606138c0 18.332481 1.636829 20.296675 18.659846 20.296675h181.033249c27.826087 0 61.872123 9.16624 198.710997 120.143223 14.731458 11.457801 28.808184 23.242967 42.230179 34.373401v-100.173913a42.88491 42.88491 0 0 1 85.769821-3.273657v188.890026a50.414322 50.414322 0 0 1-29.462916 45.831202 49.432225 49.432225 0 0 1-20.951406 4.255754zM867.191816 937.902813a42.88491 42.88491 0 0 1-42.884911-42.88491 45.503836 45.503836 0 0 1 24.879796-38.956522 399.058824 399.058824 0 0 0 0-689.759591 43.539642 43.539642 0 0 1-23.897698-38.30179 42.88491 42.88491 0 0 1 42.557544-42.88491 46.813299 46.813299 0 0 1 24.879796 7.856777 484.501279 484.501279 0 0 1 0 837.074169 46.485934 46.485934 0 0 1-25.534527 7.856777z" fill="#D4B792" p-id="1531"></path><path d="M766.035806 768.654731a43.212276 43.212276 0 0 1-43.212277-42.88491 43.867008 43.867008 0 0 1 20.951407-38.30179 201.657289 201.657289 0 0 0 3.601023-352.900256 43.212276 43.212276 0 0 1 21.606138-80.859335 56.634271 56.634271 0 0 1 23.242967 8.184143 288.081841 288.081841 0 0 1-4.255755 500.869565 58.2711 58.2711 0 0 1-21.606138 5.565218z" fill="#D4B792" p-id="1532"></path></svg>