<?xml version="1.0" standalone="no"?><!DOCTYPE svg PUBLIC "-//W3C//DTD SVG 1.1//EN" "http://www.w3.org/Graphics/SVG/1.1/DTD/svg11.dtd"><svg t="1561085557027" class="icon" viewBox="0 0 1118 1024" version="1.1" xmlns="http://www.w3.org/2000/svg" p-id="5669" xmlns:xlink="http://www.w3.org/1999/xlink" width="196.5234375" height="180"><defs><style type="text/css"></style></defs><path d="M473.683406 245.518971C401.049063 190.798928 404.4458 89.245785 464.051562 35.875131 520.004668-14.168583 606.87739-11.632662 659.712942 42.180034 713.31625 96.783751 713.479108 190.729132 643.357419 245.449175 654.50151 247.9153 665.180294 250.148771 675.789282 252.661426 855.490649 295.143909 998.5026 438.970146 1035.913242 615.414368 1040.44998 636.818467 1042.89284 658.687872 1045.661413 680.39442 1046.336108 685.675649 1047.56917 688.374426 1052.966725 690.561367 1094.123084 707.335666 1119.877799 748.445495 1116.760245 791.416549 1113.572896 835.039033 1083.04879 871.914573 1039.984674 883.22152 1031.027524 885.571318 1021.465476 886.80438 1012.182611 886.80438 709.756656 886.990503 407.3307 887.013768 104.92801 886.897442 53.907153 886.897442 12.355283 852.674149 2.188336 803.095742-7.303916 756.658154 19.218554 708.917708 65.307162 690.212387 69.867166 688.351161 71.23982 685.978098 71.5888 681.464625 76.870029 611.087018 96.273309 544.59472 132.381093 483.476712 207.900337 355.657018 319.853079 276.57818 468.029932 247.031217 469.867893 246.658972 471.659323 246.077339 473.683406 245.518971L473.683406 245.518971M557.717759 818.892898C706.988082 818.892898 856.23514 818.892898 1005.482197 818.869632 1008.367098 818.869632 1011.275263 818.962694 1014.160164 818.776571 1032.656097 817.613305 1047.150394 802.630436 1047.22019 784.762666 1047.266721 767.43 1033.23773 752.330804 1015.71894 750.865088 988.731164 748.631617 978.587482 737.068751 976.935644 710.476485 975.353602 685.373199 973.794825 659.99073 968.769515 635.399282 924.262949 417.682374 708.826043 274.43777 485.548722 313.383923 287.630605 347.909665 142.431714 515.23388 140.151712 711.383832 139.849263 736.533648 127.937416 748.887536 102.112906 750.818558 75.86962 752.772845 61.328792 782.273277 76.195334 803.607579 83.919422 814.705139 95.040247 818.916163 108.51087 818.916163 258.269765 818.846367 407.982129 818.892898 557.717759 818.892898L557.717759 818.892898M628.328019 136.520925C628.467611 98.807834 597.129219 68.027809 558.671637 68.097605 520.376913 68.190667 489.178112 98.52865 488.99199 135.846231 488.829133 173.629118 519.934872 204.478939 558.322657 204.61853 596.850035 204.758122 628.188427 174.257282 628.328019 136.520925L628.328019 136.520925M559.25327 955.250966C732.137898 955.250966 905.022526 955.250966 1077.883888 955.274231 1098.590027 955.274231 1112.270038 965.138729 1116.155347 982.79711 1120.180248 1001.037125 1107.407585 1019.67265 1088.632468 1022.766938 1084.374913 1023.464898 1080.001032 1023.627755 1075.650417 1023.627755 730.858305 1023.674285 386.042928 1023.674285 41.250817 1023.65102 20.567943 1023.65102 7.329973 1015.577952 2.11854 999.850593-4.34922 980.330986 8.423443 959.438724 29.083052 956.065252 33.084688 955.413823 37.225915 955.297496 41.320613 955.297496 213.972587 955.250966 386.601296 955.250966 559.25327 955.250966L559.25327 955.250966M456.164617 390.694597C459.002986 390.694597 461.864621 390.438679 464.65646 390.741128 473.241365 391.648475 479.755656 398.674604 480.058105 407.073386 480.360554 416.00727 474.474427 423.638297 465.633604 424.91789 459.700946 425.778707 453.582166 425.499523 447.602977 426.244013 390.533136 433.572591 351.331064 463.701186 329.112679 515.443268 328.437984 517.002045 327.949412 518.630618 327.228187 520.166129 323.180021 528.588176 313.222462 532.40369 304.451435 528.960422 295.726938 525.517154 291.143669 516.117962 294.284488 507.184078 301.171024 487.594674 311.431032 469.796701 324.994716 453.92975 353.773923 420.311355 390.277217 399.814604 434.481334 392.625619 441.623789 391.462353 448.905835 391.043577 456.141351 390.299087 456.141351 390.415413 456.164617 390.555005 456.164617 390.694597L456.164617 390.694597M456.164617 390.694597 456.164617 390.694597Z" p-id="5670" fill="#ffffff"></path></svg>