<?xml version="1.0" standalone="no"?><!DOCTYPE svg PUBLIC "-//W3C//DTD SVG 1.1//EN" "http://www.w3.org/Graphics/SVG/1.1/DTD/svg11.dtd"><svg t="1561086042769" class="icon" viewBox="0 0 1024 1024" version="1.1" xmlns="http://www.w3.org/2000/svg" p-id="19565" xmlns:xlink="http://www.w3.org/1999/xlink" width="180" height="180"><defs><style type="text/css"></style></defs><path d="M524.879843 452.057793 120.300388 452.057793c-21.795399 0-39.466873 17.652032-39.466873 39.466873l0 404.561036c0 21.797445 17.671475 39.467897 39.466873 39.467897l404.579455 0c21.775956 0 39.467897-17.671475 39.467897-39.467897L564.34774 491.524666C564.34774 469.709825 546.655799 452.057793 524.879843 452.057793zM478.551702 824.300772c0 14.06739-11.389398 25.476231-25.457812 25.476231L192.065875 849.777003c-14.06739 0-25.456788-11.408841-25.456788-25.476231L166.609087 563.291177c0-14.06739 11.389398-25.476231 25.456788-25.476231l261.028015 0c14.068414 0 25.457812 11.407817 25.457812 25.476231L478.551702 824.300772z" p-id="19566" fill="#ffffff"></path><path d="M388.208091 615.362112 256.951675 615.362112c-7.072069 0-12.814864 5.742794-12.814864 12.796444l0 131.274836c0 7.05365 5.742794 12.797467 12.814864 12.797467l131.256416 0c7.073092 0 12.795421-5.743818 12.795421-12.797467L401.003512 628.158556C401.004535 621.104907 395.281183 615.362112 388.208091 615.362112z" p-id="19567" fill="#ffffff"></path><path d="M682.094468 491.524666l0 250.086825c0 21.814842 19.156292 39.467897 42.821271 39.467897l1.387603 0c23.644513 0 42.820248-17.653055 42.820248-39.467897L769.12359 491.524666c0-21.814842-19.174712-39.466873-42.820248-39.466873l-1.387603 0C701.249737 452.057793 682.094468 469.709825 682.094468 491.524666z" p-id="19568" fill="#ffffff"></path><path d="M933.390841 452.057793l-1.387603 0c-23.644513 0-42.820248 17.652032-42.820248 39.466873l0 62.535265c0 21.797445 19.174712 39.467897 42.820248 39.467897l1.387603 0c23.666002 0 42.820248-17.671475 42.820248-39.467897L976.211089 491.524666C976.211089 469.709825 957.056843 452.057793 933.390841 452.057793z" p-id="19569" fill="#ffffff"></path><path d="M933.390841 641.435954l-1.387603 0c-23.644513 0-42.820248 17.653055-42.820248 39.46585l0 167.620625L721.561341 848.52243c-21.813818 0-39.466873 19.158339-39.466873 42.822294l0 1.387603c0 23.666002 17.653055 42.821271 39.466873 42.821271l210.440873 0 1.387603 0 3.353374 0c10.096962 0 19.193131-4.199649 26.170033-10.966773 0.422625-0.36532 0.828878-0.711198 1.233084-1.096984 0.384763-0.407276 0.733711-0.809435 1.078565-1.235131 6.765077-6.972808 10.984169-16.072047 10.984169-26.171056l0-3.350304 0-1.387603 0-210.44292C976.211089 659.08901 957.056843 641.435954 933.390841 641.435954z" p-id="19570" fill="#ffffff"></path><path d="M93.08863 354.179578l61.051471 0c6.764054 0 12.257162-5.493108 12.257162-12.276604L166.397263 71.798233c0-6.783497-5.493108-12.275581-12.257162-12.275581L93.08863 59.522652c-6.744611 0-12.256138 5.492084-12.256138 12.275581l0 270.105764C80.832492 348.686471 86.344019 354.179578 93.08863 354.179578z" p-id="19571" fill="#ffffff"></path><path d="M240.726132 354.179578l23.876804 0c6.783497 0 12.275581-5.493108 12.275581-12.276604L276.878516 71.798233c0-6.783497-5.492084-12.275581-12.275581-12.275581l-23.876804 0c-6.80294 0-12.275581 5.492084-12.275581 12.275581l0 270.105764C228.450551 348.686471 233.923192 354.179578 240.726132 354.179578z" p-id="19572" fill="#ffffff"></path><path d="M535.383058 354.179578c-0.1361 0-0.25071-0.058328-0.366344-0.077771-0.115634 0.019443-0.25071 0.077771-0.384763 0.077771L535.383058 354.179578z" p-id="19573" fill="#ffffff"></path><path d="M534.631952 59.522652c0.134053 0 0.26913 0.057305 0.384763 0.076748 0.115634-0.019443 0.231267-0.076748 0.366344-0.076748L534.631952 59.522652z" p-id="19574" fill="#ffffff"></path><path d="M535.016715 354.101807c6.590092-0.211824 11.909238-5.550413 11.909238-12.198833L546.925952 71.798233c0-6.667863-5.318122-11.987009-11.909238-12.198833-6.609535 0.211824-11.910261 5.53097-11.910261 12.198833l0 270.105764C523.106454 348.552417 528.40718 353.889983 535.016715 354.101807z" p-id="19575" fill="#ffffff"></path><path d="M964.265012 59.522652l-61.051471 0c-6.765077 0-12.257162 5.492084-12.257162 12.275581l0 270.105764c0 6.782473 5.491061 12.276604 12.257162 12.276604l61.051471 0c6.763031 0 12.256138-5.493108 12.256138-12.276604L976.521151 71.798233C976.520127 65.013713 971.028043 59.522652 964.265012 59.522652z" p-id="19576" fill="#ffffff"></path><path d="M792.750707 354.179578l24.337291 0c6.783497 0 12.277628-5.493108 12.277628-12.276604L829.365626 71.798233c0-6.783497-5.494131-12.275581-12.277628-12.275581l-24.337291 0c-6.763031 0-12.276604 5.492084-12.276604 12.275581l0 270.105764C780.474103 348.686471 785.987676 354.179578 792.750707 354.179578z" p-id="19577" fill="#ffffff"></path><path d="M375.41267 354.179578l73.557296 0c6.80294 0 12.275581-5.493108 12.275581-12.276604L461.245548 71.798233c0-6.783497-5.472642-12.275581-12.275581-12.275581l-73.557296 0c-6.765077 0-12.257162 5.492084-12.257162 12.275581l0 270.105764C363.155509 348.686471 368.647593 354.179578 375.41267 354.179578z" p-id="19578" fill="#ffffff"></path><path d="M719.018426 341.902974 719.018426 71.798233c0-6.783497-5.510504-12.275581-12.295024-12.275581l-73.537853 0c-6.78452 0-12.258185 5.492084-12.258185 12.275581l0 270.105764c0 6.782473 5.473665 12.276604 12.258185 12.276604l73.537853 0C713.507922 354.179578 719.018426 348.686471 719.018426 341.902974z" p-id="19579" fill="#ffffff"></path></svg>