<?xml version="1.0" standalone="no"?><!DOCTYPE svg PUBLIC "-//W3C//DTD SVG 1.1//EN" "http://www.w3.org/Graphics/SVG/1.1/DTD/svg11.dtd"><svg t="1558922959881" class="icon" style="" viewBox="0 0 1024 1024" version="1.1" xmlns="http://www.w3.org/2000/svg" p-id="1755" xmlns:xlink="http://www.w3.org/1999/xlink" width="200" height="200"><defs><style type="text/css"></style></defs><path d="M194.357248 341.292032h27.034624c7.457792 0 13.513728-6.121472 13.513728-13.645824V27.200512c0-7.524352-6.055936-13.6448-13.513728-13.6448h-27.034624c-7.457792 0-13.513728 6.121472-13.513728 13.6448v300.445696c0 7.524352 6.055936 13.645824 13.513728 13.645824z m148.680704 0h81.104896c7.457792 0 13.52192-6.121472 13.52192-13.645824V27.200512c0-7.524352-6.063104-13.6448-13.52192-13.6448h-81.104896c-7.4496 0-13.513728 6.121472-13.513728 13.6448v300.445696c0 7.524352 6.063104 13.645824 13.513728 13.645824z m459.578368 0h27.04384c7.457792 0 13.497344-6.121472 13.497344-13.645824V27.200512c0-7.524352-6.038528-13.6448-13.497344-13.6448h-27.04384c-7.457792 0-13.512704 6.121472-13.512704 13.6448v300.445696c-0.001024 7.524352 6.053888 13.645824 13.512704 13.645824zM694.493184 505.168896v245.815296c0 22.622208 18.16576 40.951808 40.54016 40.951808s40.54016-18.3296 40.54016-40.951808V505.168896c0-22.621184-18.16576-40.969216-40.54016-40.969216s-40.54016 18.348032-40.54016 40.969216z m229.776384-163.876864h67.582976c7.457792 0 13.513728-6.121472 13.513728-13.645824V27.200512c0-7.524352-6.055936-13.6448-13.513728-13.6448h-67.582976c-7.457792 0-13.512704 6.121472-13.512704 13.6448v300.445696c0 7.524352 6.054912 13.645824 13.512704 13.645824z m-202.749952-13.645824V27.200512c0-7.524352-6.07232-13.6448-13.530112-13.6448h-81.081344c-7.457792 0-13.529088 6.121472-13.529088 13.6448v300.445696c0 7.524352 6.071296 13.645824 13.529088 13.645824h81.081344c7.458816 0 13.530112-6.121472 13.530112-13.645824zM521.755648 464.19968H29.160448C15.878144 464.19968 5.12 475.072512 5.12 488.487936v497.668096c0 13.4144 10.758144 24.288256 24.040448 24.288256h492.5952c13.282304 0 24.040448-10.873856 24.040448-24.288256V488.487936c0-13.415424-10.758144-24.288256-24.040448-24.288256zM464.6912 928.505856H86.224896V546.138112H464.6912v382.367744z m513.64864-245.81632c-22.38976 0-40.556544 18.348032-40.556544 40.9856v204.829696H735.033344c-22.3744 0-40.54016 18.348032-40.54016 40.97024 0 22.62016 18.16576 40.968192 40.54016 40.968192H978.33984c22.38976 0 40.54016-18.348032 40.54016-40.968192V723.67616c0-22.638592-18.1504-40.986624-40.54016-40.986624zM32.154624 341.292032h67.584c7.457792 0 13.52192-6.121472 13.52192-13.645824V27.200512c0-7.524352-6.064128-13.6448-13.52192-13.6448h-67.584c-7.457792 0-13.512704 6.121472-13.512704 13.6448v300.445696c0 7.524352 6.054912 13.645824 13.512704 13.645824zM978.33984 464.19968c-22.38976 0-40.556544 18.348032-40.556544 40.969216v54.631424c0 22.622208 18.166784 40.951808 40.556544 40.951808S1018.88 582.421504 1018.88 559.80032v-54.631424c0-22.621184-18.1504-40.969216-40.54016-40.969216zM221.391872 819.260416h108.132352c14.932992 0 27.034624-12.24192 27.034624-27.324416V682.689536c0-15.064064-12.102656-27.305984-27.034624-27.305984H221.391872c-14.923776 0-27.034624 12.24192-27.034624 27.305984v109.246464c0 15.082496 12.110848 27.324416 27.034624 27.324416z m304.125952-477.968384c11.20256 0 20.278272-6.121472 20.278272-13.645824V27.200512c0-7.524352-9.074688-13.6448-20.278272-13.6448-11.1872 0-20.27008 6.121472-20.27008 13.6448v300.445696c0 7.524352 9.08288 13.645824 20.27008 13.645824z m0 0" fill="#ffffff" p-id="1756"></path></svg>