<?xml version="1.0" standalone="no"?><!DOCTYPE svg PUBLIC "-//W3C//DTD SVG 1.1//EN" "http://www.w3.org/Graphics/SVG/1.1/DTD/svg11.dtd"><svg t="1557827019043" class="icon" style="" viewBox="0 0 1024 1024" version="1.1" xmlns="http://www.w3.org/2000/svg" p-id="7700" xmlns:xlink="http://www.w3.org/1999/xlink" width="200" height="200"><defs><style type="text/css"></style></defs><path d="M63.2 511.5c0 246.8 200.1 446.9 446.9 446.9 246.8 0 446.9-200.1 446.9-446.9 0-246.8-200.1-446.9-446.9-446.9-246.8 0-446.9 200.1-446.9 446.9z m0 0" fill="#FCBC45" p-id="7701"></path><path d="M602.3 776.4H418.9c-6.3 0-11.5 5.1-11.5 11.5 0 6.3 5.1 11.5 11.5 11.5h183.5c6.3 0 11.5-5.1 11.5-11.5-0.1-6.3-5.2-11.5-11.6-11.5z m195-298.1H223.9c-1.1 13.4-1.1 26.8 0 40.1 1.3 92.8 51.8 178 132.6 223.6h308.2c80.8-45.6 131.3-130.8 132.6-223.6 1-13.3 1-26.8 0-40.1z m-430-97.5c0 16.5-6.4 20.1-18.6 32.3-4.2 4.4-4.2 11.3 0 15.8 2.4 2.1 5.4 3.3 8.6 3.6 3.7 0.5 7.5-0.8 10-3.6 15.4-11.2 24.7-29 25.1-48 0-22.4-9.1-43.8-25.1-59.5-11.3-9.4-17.8-23.3-17.8-38s6.5-28.6 17.8-38c4.2-4.4 4.2-11.3 0-15.8-2-2.4-5.1-3.8-8.2-3.8-3.2 0-6.2 1.4-8.2 3.8-15.4 13.6-24.3 33.2-24.3 53.7 0 20.6 8.8 40.1 24.3 53.7 11.1 11.8 17.1 27.6 16.4 43.8z m131.1 0c0 16.5-6.4 20.1-17.9 32.3-2.4 1.9-3.8 4.8-3.8 7.9 0 3.1 1.4 6 3.8 7.9 2 2.2 4.9 3.4 7.9 3.4s5.8-1.2 7.9-3.4c15.7-11 25-28.9 25.1-48 0.2-22.4-8.8-44-25.1-59.5-11.3-9.4-17.8-23.3-17.8-38s6.5-28.6 17.8-38c4-2.5 6.2-7.2 5.3-11.9-0.9-4.7-4.5-8.3-9.2-9.2-4.7-0.9-9.4 1.2-11.9 5.3-15.4 13.6-24.3 33.2-24.3 53.7 0 20.6 8.8 40.1 24.3 53.7 11.5 11.7 18 27.5 17.9 43.8z m105.4 32.3c-4.2 4.4-4.2 11.3 0 15.8 2.4 2.1 5.4 3.3 8.6 3.6 3-0.1 5.8-1.4 7.9-3.6 15.4-13.6 24.3-33.2 24.3-53.7 0-20.6-8.8-40.1-24.3-53.8-11.3-9.4-17.8-23.3-17.8-38s6.5-28.6 17.8-38c4.2-4.4 4.2-11.3 0-15.8-2-2.4-5.1-3.8-8.2-3.8-3.2 0-6.2 1.4-8.2 3.8-15.4 13.6-24.3 33.2-24.3 53.7 0 20.6 8.8 40.1 24.3 53.7 11.5 9.3 18.2 23.2 18.2 38s-6.8 28.8-18.3 38.1z m0 0" fill="#FFFFFF" p-id="7702"></path></svg>