<?xml version="1.0" standalone="no"?><!DOCTYPE svg PUBLIC "-//W3C//DTD SVG 1.1//EN" "http://www.w3.org/Graphics/SVG/1.1/DTD/svg11.dtd"><svg t="1557821037968" class="icon" style="" viewBox="0 0 1199 1024" version="1.1" xmlns="http://www.w3.org/2000/svg" p-id="1518" xmlns:xlink="http://www.w3.org/1999/xlink" width="234.1796875" height="200"><defs><style type="text/css"></style></defs><path d="M1157.063 466.307H41.843C18.747 466.307 0 485.053 0 508.15c0 23.098 18.746 41.844 41.844 41.844h1115.22c23.097 0 41.843-18.746 41.843-41.844 0-23.097-18.746-41.843-41.844-41.843zM434.003 940.313H264.955c-53.728 0-97.58-43.853-97.58-97.58V681.216c0-23.098-18.746-41.844-41.844-41.844-23.098 0-41.844 18.746-41.844 41.844v161.517c0 99.923 81.177 181.1 181.268 181.1h169.048c23.098 0 41.844-18.746 41.844-41.844 0-22.93-18.746-41.676-41.844-41.676zM1073.376 639.372c-23.098 0-41.844 18.746-41.844 41.844v161.517c0 53.727-43.852 97.58-97.58 97.58H764.904c-23.098 0-41.844 18.746-41.844 41.843S741.806 1024 764.904 1024h169.048c99.923 0 181.267-81.344 181.267-181.267V681.216c0-23.098-18.746-41.844-41.843-41.844zM763.23 83.687h169.049c53.727 0 97.58 43.853 97.58 97.58v161.517c0 23.098 18.745 41.844 41.843 41.844 23.098 0 41.844-18.746 41.844-41.844V181.267C1113.546 81.344 1032.2 0 932.279 0h-169.05c-23.097 0-41.843 18.746-41.843 41.844 0.167 23.097 18.746 41.843 41.844 41.843zM123.857 384.46c23.098 0 41.844-18.746 41.844-41.843v-161.35c0-53.727 43.852-97.58 97.58-97.58H432.33c23.097 0 41.843-18.746 41.843-41.843C474.173 18.746 455.427 0 432.33 0H263.28C163.359 0 82.015 81.344 82.015 181.267v161.517c0 23.098 18.746 41.676 41.843 41.676z" p-id="1519" fill="#ffffff"></path></svg>