<?xml version="1.0" standalone="no"?><!DOCTYPE svg PUBLIC "-//W3C//DTD SVG 1.1//EN" "http://www.w3.org/Graphics/SVG/1.1/DTD/svg11.dtd"><svg t="1557286547573" class="icon" style="" viewBox="0 0 1024 1024" version="1.1" xmlns="http://www.w3.org/2000/svg" p-id="1166" xmlns:xlink="http://www.w3.org/1999/xlink" width="200" height="200"><defs><style type="text/css"></style></defs><path d="M512 0A512 512 0 1 1 0 512 512 512 0 0 1 512 0z m239.757241 225.103448a47.13931 47.13931 0 0 1 34.427587 14.477242 48.904828 48.904828 0 0 1 0 69.208276l-110.52138 110.521379 50.670345 302.962758a99.751724 99.751724 0 0 1-21.186207 72.209656 23.128276 23.128276 0 0 1-17.655172 6.355862 24.717241 24.717241 0 0 1-17.655173-13.24138l-135.591724-225.986207L423.724138 670.896552l-17.655172 114.228965c-1.235862 9.357241-4.237241 11.828966-5.12 12.358621s-4.590345 0-11.475863-6.885517l-153.953103-153.776552c-6.355862-6.355862-7.238621-10.593103-6.885517-11.475862s3.001379-4.237241 12.35862-5.473104l114.405518-17.655172 108.755862-108.755862-225.809655-136.474483a22.245517 22.245517 0 0 1-6.885518-35.310345 99.751724 99.751724 0 0 1 72.386207-21.53931l302.962759 50.493793 110.521379-110.521379a47.13931 47.13931 0 0 1 34.427586-15.006897z m58.615173 107.52a84.038621 84.038621 0 0 0-118.995862-118.466207l-98.162759 98.162759L307.729655 264.827586a135.238621 135.238621 0 0 0-99.398621 28.954483l-4.590344 4.590345a57.202759 57.202759 0 0 0-13.594483 43.255172 58.438621 58.438621 0 0 0 29.307586 42.902069l188.733793 112.993104-70.620689 70.620689-103.282759 16.595862a45.903448 45.903448 0 0 0-39.547586 28.424828 46.433103 46.433103 0 0 0 15.36 46.256552l153.953103 153.776551a44.137931 44.137931 0 0 0 46.256552 15.36 44.314483 44.314483 0 0 0 28.424827-39.547586l16.595863-103.282758 70.620689-70.62069 112.993104 188.733793a59.144828 59.144828 0 0 0 42.902069 29.307586 32.132414 32.132414 0 0 0 6.355862 0 58.438621 58.438621 0 0 0 36.89931-13.594483l5.12-5.12A133.296552 133.296552 0 0 0 759.172414 716.270345L712.386207 430.786207z" p-id="1167" fill="#FB720D"></path></svg>