<?xml version="1.0" standalone="no"?><!DOCTYPE svg PUBLIC "-//W3C//DTD SVG 1.1//EN" "http://www.w3.org/Graphics/SVG/1.1/DTD/svg11.dtd"><svg t="1561086093030" class="icon" viewBox="0 0 1024 1024" version="1.1" xmlns="http://www.w3.org/2000/svg" p-id="20449" xmlns:xlink="http://www.w3.org/1999/xlink" width="180" height="180"><defs><style type="text/css"></style></defs><path d="M956.525675 217.419551H745.987497a132.775551 132.775551 0 0 0 30.401878-68.0423 130.707396 130.707396 0 0 0-26.058753-97.4101 133.189182 133.189182 0 0 0-186.13395-24.81786C534.622056 50.312627 511.872351 106.566443 498.429343 154.340823c-14.063454-47.77438-36.192712-103.40775-66.387775-127.191532a133.189182 133.189182 0 0 0-186.13395 24.81786 131.327842 131.327842 0 0 0 4.343126 165.4524H67.219026A51.703875 51.703875 0 0 0 15.515152 269.123426v248.1786a51.703875 51.703875 0 0 0 51.703874 51.703875h20.68155V972.296125A51.703875 51.703875 0 0 0 139.604451 1024h744.5358a51.703875 51.703875 0 0 0 51.703874-51.703875V569.005901h20.68155A51.703875 51.703875 0 0 0 1008.22955 517.302026V269.123426a51.703875 51.703875 0 0 0-51.703875-51.703875zM602.45754 76.578196a70.730901 70.730901 0 0 1 98.650993 13.236192 69.696823 69.696823 0 0 1-13.236192 97.616915c-17.786133 13.443007-79.830783 18.82021-138.7732 17.372502 13.029376-52.117506 34.124557-113.541709 53.358399-128.225609z m-306.707386 13.236192a70.730901 70.730901 0 0 1 98.650993-13.236192c17.992948 13.649823 39.294945 71.351347 53.358399 128.225609-54.185661 1.240893-119.539359-2.688601-138.7732-17.372502a69.283192 69.283192 0 0 1-26.886015-46.326672 68.042299 68.042299 0 0 1 13.649823-51.290243zM77.559801 506.961251v-227.49705h305.052863v227.49705H77.559801z m72.385425 454.994099v-392.949449h232.667438v392.949449z m294.712088 0v-682.491149h124.089299v682.491149z m429.142162 0H630.791263v-392.949449H873.799476z m72.385424-454.994099H630.791263v-227.49705H946.1849z" p-id="20450" fill="#ffffff"></path></svg>