<?xml version="1.0" standalone="no"?><!DOCTYPE svg PUBLIC "-//W3C//DTD SVG 1.1//EN" "http://www.w3.org/Graphics/SVG/1.1/DTD/svg11.dtd"><svg t="1563448805869" class="icon" viewBox="0 0 1024 1024" version="1.1" xmlns="http://www.w3.org/2000/svg" p-id="3336" xmlns:xlink="http://www.w3.org/1999/xlink" width="200" height="200"><defs><style type="text/css"></style></defs><path d="M984.2688 447.2832L888.832 352.0512v-134.7584c0-48.128-39.1168-87.2448-87.2448-87.2448h-134.7584L571.5968 34.816c-16.384-16.384-37.6832-24.9856-59.1872-25.6h-4.9152c-21.504 0.6144-42.8032 9.216-59.1872 25.6l-95.232 95.232h-134.7584C169.984 130.048 131.072 169.1648 131.072 217.2928v134.7584l-95.232 95.232C18.8416 464.2816 10.24 486.6048 10.24 509.1328c0 22.3232 8.6016 44.6464 25.6 61.6448L131.072 666.0096V800.768c0 48.128 39.1168 87.2448 87.2448 87.2448h134.7584l95.232 95.232c34.2016 33.9968 89.2928 33.9968 123.4944 0l95.232-95.232h134.7584c48.128 0 87.2448-39.1168 87.2448-87.2448v-134.7584l95.232-95.232c33.9968-33.9968 33.9968-89.2928 0-123.4944z" fill="#F7B400" p-id="3337"></path><path d="M657.408 579.1744c-8.8064-73.9328-71.68-131.2768-148.0704-131.2768-76.1856 0-139.0592 57.344-147.8656 131.2768-61.6448 1.8432-111.2064 52.6336-111.2064 114.688 0 63.488 51.4048 114.688 114.8928 114.688h289.792c63.488 0 114.688-51.4048 114.688-114.688 0-62.464-49.9712-113.2544-112.2304-114.688z" fill="#FFFFFF" p-id="3338"></path><path d="M628.3264 443.8016c0 20.48 16.5888 37.0688 37.0688 37.0688 20.48 0 37.0688-16.5888 37.0688-37.0688 0-20.48-16.5888-37.0688-37.0688-37.0688-20.48 0-37.0688 16.5888-37.0688 37.0688zM316.2112 443.8016c0 20.48 16.5888 37.0688 37.0688 37.0688 20.48 0 37.0688-16.5888 37.0688-37.0688 0-20.48-16.5888-37.0688-37.0688-37.0688-20.48 0-37.0688 16.5888-37.0688 37.0688zM599.6544 579.1744h-180.6336c-16.7936 0-31.744 22.7328-7.3728 40.7552l59.5968 44.6464s16.384 11.8784 37.888 11.6736c21.504 0.2048 37.888-11.6736 37.888-11.6736l59.5968-44.6464c24.576-18.0224 9.8304-40.7552-6.9632-40.7552z" fill="" p-id="3339"></path></svg>