<?xml version="1.0" standalone="no"?><!DOCTYPE svg PUBLIC "-//W3C//DTD SVG 1.1//EN" "http://www.w3.org/Graphics/SVG/1.1/DTD/svg11.dtd"><svg t="1557131179744" class="icon" style="" viewBox="0 0 1024 1024" version="1.1" xmlns="http://www.w3.org/2000/svg" p-id="4528" xmlns:xlink="http://www.w3.org/1999/xlink" width="200" height="200"><defs><style type="text/css"></style></defs><path d="M567.1936 467.8144H471.8592c-18.5856 24.832-42.6496 48.0256-72.0384 69.7344h230.144a308.5824 308.5824 0 0 1-62.7712-69.7344z" fill="#FB720D" p-id="4529"></path><path d="M81.1008 48.8448v918.7328l147.6608-95.5904 133.632 98.4576 140.6976-105.5744 158.7712 105.5744 122.6752-105.5744 161.8432 101.9392V48.8448h-865.28z m704.768 535.1936c-7.68 13.9264-13.1584 24.7808-16.2304 32.6144a643.584 643.584 0 0 1-86.0672-39.5264 1521.664 1521.664 0 0 1-6.9632 97.6384c-1.536 48.0256-34.1504 72.0896-97.6384 72.0896-15.4624 1.4336-45.7216 2.304-90.7264 2.304l-13.9776-55.808h88.3712c33.9968 1.536 51.968-10.0352 53.4016-34.8672 1.536-7.68 3.1744-23.1936 4.6592-46.4896 1.4848-10.9056 2.3552-18.5856 2.3552-23.2448H474.1632c-7.7312 86.8352-72.8576 144.2304-195.328 171.9808a634.624 634.624 0 0 0-34.8672-51.1488c106.9056-18.5344 163.5328-58.7776 169.6768-120.832H360.192v-25.6c-27.904 20.224-61.952 39.4752-102.2976 58.2144a86.3232 86.3232 0 0 1-4.608-11.7248 621.3632 621.3632 0 0 0-25.6-44.1856c75.9808-30.9248 131.0208-63.488 165.0688-97.6384H237.0048v-51.1488h197.632a198.144 198.144 0 0 0 27.9552-53.4528H262.656v-51.1488h107.008c-20.224-26.368-41.1136-49.664-62.8224-69.7344l48.8448-27.904c10.8544 10.8544 26.3168 26.4192 46.5408 46.4896l23.2448 23.2448-48.896 27.904h99.9936c9.3184-41.9328 14.6944-79.104 16.2304-111.616h62.8224c-4.6592 46.5408-10.1376 83.712-16.2816 111.6672h107.008l-39.4752-27.9552c17.0496-13.9776 38.656-35.6864 65.0752-65.1264 0 1.6384 1.4848 0 4.608-4.608l51.1488 25.6c-4.608 4.608-10.8544 11.6736-18.5344 20.8896a532.992 532.992 0 0 1-48.896 51.2h102.2976v51.1488h-234.8544a333.4144 333.4144 0 0 1-23.2448 53.4528h285.952v51.1488h-155.8528c37.2224 41.8816 91.4432 72.0384 162.816 90.6752-3.072 6.144-6.9632 14.6944-11.52 25.4976z" fill="#FB720D" p-id="4530"></path></svg>