<?xml version="1.0" standalone="no"?><!DOCTYPE svg PUBLIC "-//W3C//DTD SVG 1.1//EN" "http://www.w3.org/Graphics/SVG/1.1/DTD/svg11.dtd"><svg t="1557372560586" class="icon" style="" viewBox="0 0 1065 1024" version="1.1" xmlns="http://www.w3.org/2000/svg" p-id="15100" xmlns:xlink="http://www.w3.org/1999/xlink" width="208.0078125" height="200"><defs><style type="text/css"></style></defs><path d="M551.214764 4.115582a34.815332 34.815332 0 0 0-39.812356 4.915105c-0.53247 0.450551-55.786449 48.331872-116.774718 97.237173a736.733375 736.733375 0 0 1-143.357248 101.824605H31.032751a32.521616 32.521616 0 0 0-30.965165 33.791352v539.801475a32.521616 32.521616 0 0 0 30.965165 33.832311h244.936097a617.296308 617.296308 0 0 1 129.308238 101.005421 3966.080651 3966.080651 0 0 1 104.445994 96.909499 35.880271 35.880271 0 0 0 24.98512 10.40364 35.388761 35.388761 0 0 0 15.441624-3.604411 41.491683 41.491683 0 0 0 22.240853-37.47768V41.224629a41.778398 41.778398 0 0 0-21.257832-36.863292z m-40.262907 912.980871c-16.588482-15.400664-35.224924-32.27586-54.393836-49.151057-125.580949-111.204265-156.587074-120.583925-177.762987-120.583925H88.293732c-21.708383 0-26.746366-6.676352-26.746367-30.473654V302.790167c0-16.383685 1.843165-26.213897 19.619463-26.213896h171.127595c20.479607 0 51.977242-9.174864 189.477322-119.109394 24.575528-19.660423 48.41379-39.320845 69.180112-56.605633v816.276168z m370.189372-405.496215a289.172048 289.172048 0 0 0-129.431115-245.509526 42.065112 42.065112 0 0 0-17.530543-5.939086 32.767371 32.767371 0 0 0-31.088043 34.078066 35.183964 35.183964 0 0 0 15.523541 29.695429 225.971981 225.971981 0 0 1-3.071941 377.562031 34.89725 34.89725 0 0 0-14.909153 29.122001 32.767371 32.767371 0 0 0 31.088043 34.078066 39.525641 39.525641 0 0 0 15.851215-4.587432 289.950273 289.950273 0 0 0 133.567996-248.499549z m-35.839312-418.357407a33.791351 33.791351 0 0 0-18.513564-6.881148 32.767371 32.767371 0 0 0-31.006125 33.83231 35.183964 35.183964 0 0 0 17.69438 30.473655 437.731116 437.731116 0 0 1 0 721.742303 36.494659 36.494659 0 0 0-18.513564 30.801328 32.521616 32.521616 0 0 0 30.965165 33.832311 32.767371 32.767371 0 0 0 18.308769-6.676352 507.894248 507.894248 0 0 0 0.860143-837.124407z m0 0" p-id="15101" fill="#D4B792"></path></svg>