<?xml version="1.0" standalone="no"?><!DOCTYPE svg PUBLIC "-//W3C//DTD SVG 1.1//EN" "http://www.w3.org/Graphics/SVG/1.1/DTD/svg11.dtd"><svg t="1557372887264" class="icon" style="" viewBox="0 0 1024 1024" version="1.1" xmlns="http://www.w3.org/2000/svg" p-id="22152" xmlns:xlink="http://www.w3.org/1999/xlink" width="200" height="200"><defs><style type="text/css"></style></defs><path d="M262.35 697.796c81.59 60.75 163.18 79.816 253.198 79.816 90.462 0 188.017-35.917 249.21-87.354 77.599 42.126 146.336 137.463 147.665 229.7h-799.51c11.084-109.53 87.354-188.458 149.437-222.162z m497.087-48.335c-65.184 59.864-152.54 96.226-248.765 96.226s-183.581-36.362-248.766-95.781C145.283 708.44 68.568 813.09 68.568 955.436H955.43c0-142.345-78.042-247.44-195.995-305.97v-0.005zM222.442 519.98V294.27l-9.756 0.445c51.432-111.302 165.398-188.461 297.986-188.461 132.143 0 246.104 77.16 297.541 188.461l-9.31-0.445V519.98c63.41 0 115.293-50.55 115.293-112.633 0-42.57-23.948-79.372-59.42-98.884-49.22-139.68-184.47-239.898-344.104-239.898-159.638 0-294.884 100.218-344.548 239.9-35.478 19.51-58.98 56.313-58.98 98.884 0 62.077 51.437 112.632 115.293 112.632h0.005z m287.785 109.53c-115.29 0-208.413-91.347-208.413-203.98 0-112.63 98.884-203.982 208.413-203.982 114.85 0 207.973 91.351 207.973 203.983s-93.124 203.978-207.973 203.978z m0.445-447.87c-137.908 0-249.65 109.53-249.65 244.33 0 135.252 111.742 244.777 249.65 244.777 137.465 0 249.21-109.525 249.21-244.776 0-134.8-111.746-244.33-249.21-244.33z m0 0" fill="#D4B792" p-id="22153"></path></svg>