<?xml version="1.0" standalone="no"?><!DOCTYPE svg PUBLIC "-//W3C//DTD SVG 1.1//EN" "http://www.w3.org/Graphics/SVG/1.1/DTD/svg11.dtd"><svg t="1557372293178" class="icon" style="" viewBox="0 0 1024 1024" version="1.1" xmlns="http://www.w3.org/2000/svg" p-id="1454" xmlns:xlink="http://www.w3.org/1999/xlink" width="200" height="200"><defs><style type="text/css"></style></defs><path d="M906.4448 691.712c-14.336 0-25.9072 11.776-26.0096 26.2144v133.8368c0 29.184-23.2448 52.736-51.9168 52.736H103.936c-28.672 0-51.9168-23.552-51.9168-52.736V172.2368c0-29.0816 23.2448-52.736 51.9168-52.736h724.5824c28.672 0 51.9168 23.552 51.9168 52.736V313.7536c0 14.5408 11.5712 26.3168 26.0096 26.3168 14.336 0 26.0096-11.776 26.0096-26.3168V166.912c0-55.296-44.2368-100.1472-98.7136-100.1472H98.7136C44.2368 66.7648 0 111.616 0 166.912v690.176c0 55.296 44.2368 100.1472 98.7136 100.1472h735.0272c54.4768 0 98.7136-44.8512 98.7136-100.1472V717.9264c-0.1024-14.4384-11.776-26.2144-26.0096-26.2144z m18.8416-314.2656H546.816c-51.2 0-92.672 39.5264-97.6896 90.112-0.6144 0.9216-1.024 2.2528-1.024 4.608v83.456c0 55.296 44.2368 100.1472 98.7136 100.1472h378.4704c54.4768 0 98.7136-44.8512 98.7136-100.1472v-77.9264c0-55.3984-44.2368-100.2496-98.7136-100.2496z m46.7968 172.8512c0 29.0816-23.3472 52.736-51.9168 52.736H552.0384c-28.672 0-52.0192-23.552-52.0192-52.736v-67.3792c0-29.0816 23.2448-52.736 52.0192-52.736h368.0256c28.672 0 51.9168 23.6544 51.9168 52.736l0.1024 67.3792z m-81.7152-66.4576c-17.5104 0-31.744 14.4384-31.744 32.1536s14.2336 32.1536 31.744 32.1536 31.744-14.4384 31.744-32.1536-14.2336-32.1536-31.744-32.1536z" fill="#D4B792" p-id="1455"></path></svg>