<?xml version="1.0" standalone="no"?><!DOCTYPE svg PUBLIC "-//W3C//DTD SVG 1.1//EN" "http://www.w3.org/Graphics/SVG/1.1/DTD/svg11.dtd"><svg t="1557372519145" class="icon" style="" viewBox="0 0 1024 1024" version="1.1" xmlns="http://www.w3.org/2000/svg" p-id="14294" xmlns:xlink="http://www.w3.org/1999/xlink" width="200" height="200"><defs><style type="text/css"></style></defs><path d="M317.046154 35.446154h391.876923v145.723077h-391.876923z" fill="#D4B792" p-id="14295"></path><path d="M261.907692 370.215385h494.276923v47.261538h-494.276923zM261.907692 539.569231h108.307693v47.261538h-108.307693zM261.907692 708.923077h218.584616v49.230769h-218.584616zM988.553846 358.4l35.446154 31.507692-387.938462 376.123077-35.446153-35.446154z" fill="#D4B792" p-id="14296"></path><path d="M470.646154 533.661538l200.861538 196.923077-37.415384 35.446154-200.861539-196.923077z" fill="#D4B792" p-id="14297"></path><path d="M968.861538 923.569231c0 23.630769-27.569231 49.230769-53.16923 49.230769h-813.292308c-23.630769 0-53.169231-27.569231-53.169231-49.230769v-736.492308c0-23.630769 25.6-49.230769 51.2-49.230769l169.353846 1.969231 1.969231 82.707692h476.553846V139.815385h167.384616c45.292308 1.969231 55.138462 13.784615 55.138461 49.230769v100.430769h49.230769v-114.215385c0-47.261538-39.384615-84.676923-86.646153-84.676923l-183.138462 1.969231v-74.830769h-476.553846l-1.969231 72.861538h-181.169231c-47.261538 0-86.646154 37.415385-86.646153 84.676923v764.061539c0 47.261538 39.384615 84.676923 86.646153 84.676923h842.83077c47.261538 0 86.646154-37.415385 86.646153-84.676923V553.353846h-49.230769v370.215385z m-647.876923-864.492308h376.123077v112.246154h-376.123077v-112.246154z" fill="#D4B792" p-id="14298"></path></svg>