<?xml version="1.0" standalone="no"?><!DOCTYPE svg PUBLIC "-//W3C//DTD SVG 1.1//EN" "http://www.w3.org/Graphics/SVG/1.1/DTD/svg11.dtd"><svg t="1557371954391" class="icon" style="" viewBox="0 0 1024 1024" version="1.1" xmlns="http://www.w3.org/2000/svg" p-id="7624" xmlns:xlink="http://www.w3.org/1999/xlink" width="200" height="200"><defs><style type="text/css"></style></defs><path d="M163.686842 887.263747C63.000795 793.765394 0.001023 660.240467 0.001023 512.000414c0-282.769866 229.229526-511.999391 511.999391-511.999391s511.999391 229.229526 511.999392 511.999391c0 149.014695-63.659803 283.160768-165.266825 376.726659-60.276757-65.347233-248.749068-57.975344-248.749068-160.489013 0-75.381761 118.078139-144.860076 118.078139-319.738805 0-147.671095-96.802605-232.497962-217.540313-232.497961-120.743848 0-217.545429 84.826866-217.54543 232.497961 0 174.878728 118.078139 244.358066 118.078139 319.738805-0.002047 101.741074-185.646966 95.249228-247.367606 159.025687z m328.407221 136.356412a520.508172 520.508172 0 0 0 39.812703 0h-39.812703z" p-id="7625" fill="#ffffff"></path><path d="M512.000414 0.001023c-282.768842 0-511.999391 229.229526-511.999391 511.999391s229.229526 511.999391 511.999391 511.999392 511.999391-229.229526 511.999392-511.999392S794.77028 0.001023 512.000414 0.001023z m-0.002046 991.996966c-264.671694 0-479.999621-215.327927-479.999621-479.999621S247.326674 31.99977 511.998368 31.99977 991.997989 247.327698 991.997989 511.998368 776.670062 991.997989 511.998368 991.997989z" p-id="7626" fill="#ffffff"></path></svg>