<?xml version="1.0" standalone="no"?><!DOCTYPE svg PUBLIC "-//W3C//DTD SVG 1.1//EN" "http://www.w3.org/Graphics/SVG/1.1/DTD/svg11.dtd"><svg t="1557372355462" class="icon" style="" viewBox="0 0 1152 1024" version="1.1" xmlns="http://www.w3.org/2000/svg" p-id="1281" xmlns:xlink="http://www.w3.org/1999/xlink" width="225" height="200"><defs><style type="text/css"></style></defs><path d="M980.481716 0H620.528017a168.502676 168.502676 0 0 0-168.107267 160.389475h-184.524049c-58.78409 0-104.094995 24.412825-134.731845 72.974868L3.353651 445.537711A24.39818 24.39818 0 0 0 0 455.378993v383.06314a24.251732 24.251732 0 0 0 24.105285 21.469226h80.077579a146.520882 146.520882 0 0 0 291.137945 0h80.839107a23.739165 23.739165 0 0 0 10.924995-2.577478h253.134777a139.989316 139.989316 0 0 0-0.951909 16.943994 146.447658 146.447658 0 1 0 292.822092 0 151.587971 151.587971 0 0 0-1.010489-17.690877 132.535131 132.535131 0 0 0 117.656049-131.524642V168.23907A168.414807 168.414807 0 0 0 980.481716 0zM249.781126 941.18981a97.885615 97.885615 0 1 1 97.885615-97.856325 98.046707 98.046707 0 0 1-97.885615 97.856325z m202.097768-129.781915H395.994468a26.126262 26.126262 0 0 0-3.324362 0.205027 146.447658 146.447658 0 0 0-285.968342-0.205027H48.371662V465.000604l126.135368-206.022565c21.557095-34.10766 51.25668-50.041165 93.433605-50.041165h184.275089z m433.807253 160.784884a97.856325 97.856325 0 1 1 97.856325-97.856325 98.032062 98.032062 0 0 1-97.856325 97.856325z m214.501885-247.115778a83.855929 83.855929 0 0 1-83.548389 83.753415 146.447658 146.447658 0 0 0-261.906992 0H500.836346V168.253715a119.852763 119.852763 0 0 1 119.691671-119.691672h359.953699a119.852763 119.852763 0 0 1 119.691671 119.691672z" p-id="1282" fill="#D4B792"></path><path d="M123.850785 463.711865a24.251732 24.251732 0 0 0 24.281021 24.281022h154.956267a24.251732 24.251732 0 0 0 24.266377-24.281022V308.755598a24.281022 24.281022 0 0 0-48.547398 0v130.675245h-130.675246a24.251732 24.251732 0 0 0-24.281021 24.281022z" p-id="1283" fill="#D4B792"></path></svg>