<?xml version="1.0" standalone="no"?><!DOCTYPE svg PUBLIC "-//W3C//DTD SVG 1.1//EN" "http://www.w3.org/Graphics/SVG/1.1/DTD/svg11.dtd"><svg t="1557373056433" class="icon" style="" viewBox="0 0 1024 1024" version="1.1" xmlns="http://www.w3.org/2000/svg" p-id="29171" xmlns:xlink="http://www.w3.org/1999/xlink" width="200" height="200"><defs><style type="text/css"></style></defs><path d="M954.148 392.45h-40.161V265.274c0-51.315-40.16-51.315-53.547-51.315H525.767l-42.391-91.474c-6.699-13.388-17.846-20.083-31.24-20.083H90.69c-40.16 0-69.165 55.779-69.165 84.785v687.195c0 33.473 33.464 75.86 69.165 75.86h852.302c35.702 0 62.475-40.164 62.475-75.86V439.306c-2.237-22.31-15.623-46.857-51.32-46.857zM847.06 280.892V392.45H606.087l-51.32-111.557H847.06z m89.243 593.488c0 2.23 0 6.694-2.239 8.927H95.154c-2.235-2.233-6.694-6.697-6.694-8.927v-687.2c0-4.46 4.459-13.383 8.92-17.846h332.448l122.718 269.971c4.464 11.155 17.85 20.084 31.237 20.084h352.52V874.38z m0 0" p-id="29172" fill="#D4B792"></path></svg>