<?xml version="1.0" standalone="no"?><!DOCTYPE svg PUBLIC "-//W3C//DTD SVG 1.1//EN" "http://www.w3.org/Graphics/SVG/1.1/DTD/svg11.dtd"><svg t="1557372602390" class="icon" style="" viewBox="0 0 1024 1024" version="1.1" xmlns="http://www.w3.org/2000/svg" p-id="16550" xmlns:xlink="http://www.w3.org/1999/xlink" width="200" height="200"><defs><style type="text/css"></style></defs><path d="M877.696 1024H219.392c-80.512 0-146.304-65.792-146.304-146.304v-73.088h73.088v73.088c0 43.904 29.312 73.088 73.088 73.088h658.304c43.904 0 73.088-29.312 73.088-73.088V146.176c0-43.904-29.312-73.088-73.088-73.088H219.392c-43.904 0-73.088 29.312-73.088 73.088v73.088H73.088v-73.088C73.088 65.792 139.008 0 219.392 0h658.304C958.208 0 1024 65.792 1024 146.176v731.392c0 80.512-65.792 146.432-146.304 146.432zM219.392 402.176c0 21.888-14.592 36.608-36.608 36.608H36.608C14.592 438.784 0 424.192 0 402.176c0-21.888 14.592-36.608 36.608-36.608h146.304c21.888 0.128 36.48 14.72 36.48 36.608zM36.608 585.088h146.304c21.888 0 36.608 14.592 36.608 36.608 0 21.888-14.592 36.608-36.608 36.608H36.608C14.592 658.176 0 643.584 0 621.696c0-22.016 14.592-36.608 36.608-36.608z m0 0" p-id="16551" fill="#D4B792"></path><path d="M727.68 505.472c19.84 0 35.968-16.128 35.968-35.968 0-19.84-16.128-35.968-35.968-35.968l-88.192-0.128 97.536-116.224c12.8-15.232 10.88-37.888-4.48-50.688-15.232-12.8-38.016-10.752-50.688 4.48l-114.688 136.704-114.688-136.704c-12.672-15.104-35.456-17.28-50.688-4.352-15.232 12.8-17.28 35.456-4.48 50.688l97.536 116.096-92.928-0.128c-19.84 0-35.968 16.128-35.968 35.968 0 19.84 16.128 35.968 35.968 36.096l126.976 0.128v54.656l-126.848-0.128c-19.84 0-35.968 16.128-35.968 35.968 0 19.84 16.128 35.968 35.968 36.096l126.848 0.128-0.128 97.792c0 19.84 16.128 35.968 35.968 35.968 19.84 0 35.968-16.128 35.968-35.968l0.128-97.792 126.848 0.128c19.84 0 35.968-16.128 35.968-35.968 0-19.84-16.128-35.968-35.968-36.096l-126.848-0.128v-54.656h126.848z m0 0" p-id="16552" fill="#D4B792"></path></svg>