<?xml version="1.0" standalone="no"?><!DOCTYPE svg PUBLIC "-//W3C//DTD SVG 1.1//EN" "http://www.w3.org/Graphics/SVG/1.1/DTD/svg11.dtd"><svg t="1557206842447" class="icon" style="" viewBox="0 0 1024 1024" version="1.1" xmlns="http://www.w3.org/2000/svg" p-id="1217" xmlns:xlink="http://www.w3.org/1999/xlink" width="200" height="200"><defs><style type="text/css"></style></defs><path d="M513.2 1020.4c-68.4 0-134.8-13.4-197.2-39.8-60.3-25.5-114.5-62.1-161.1-108.6-46.5-46.5-83.1-100.7-108.6-161.1C19.9 648.5 6.5 582.1 6.5 513.7s13.4-134.8 39.8-197.2c25.5-60.3 62.1-114.5 108.6-161.1C201.4 108.9 255.6 72.3 316 46.8 378.4 20.4 444.8 7 513.2 7 607.4 7 699.3 33 779 82.2c6.6 4.1 8.6 12.7 4.6 19.3-4.1 6.6-12.7 8.6-19.3 4.6C689 59.6 602.2 35 513.2 35c-264 0-478.7 214.7-478.7 478.7s214.7 478.7 478.7 478.7 478.7-214.7 478.7-478.7c0-83.1-21.6-165-62.6-236.8-3.8-6.7-1.5-15.3 5.2-19.1 6.7-3.8 15.3-1.5 19.1 5.2 43.3 76 66.3 162.7 66.3 250.7 0 68.4-13.4 134.8-39.8 197.2C954.5 771.3 918 825.5 871.5 872c-46.5 46.5-100.7 83.1-161.1 108.6-62.4 26.4-128.8 39.8-197.2 39.8z" p-id="1218" fill="#FB720D"></path><path d="M740.4 754.9c-3.6 0-7.2-1.4-9.9-4.1L503.3 523.6c-2.6-2.6-4.1-6.2-4.1-9.9V274.8c0-7.7 6.3-14 14-14s14 6.3 14 14v233.1L750.3 731c5.5 5.5 5.5 14.3 0 19.8-2.7 2.8-6.3 4.1-9.9 4.1z" p-id="1219" fill="#FB720D"></path></svg>