<?xml version="1.0" standalone="no"?><!DOCTYPE svg PUBLIC "-//W3C//DTD SVG 1.1//EN" "http://www.w3.org/Graphics/SVG/1.1/DTD/svg11.dtd"><svg t="1557206866633" class="icon" style="" viewBox="0 0 1024 1024" version="1.1" xmlns="http://www.w3.org/2000/svg" p-id="1569" xmlns:xlink="http://www.w3.org/1999/xlink" width="200" height="200"><defs><style type="text/css"></style></defs><path d="M959.276906 686.279279l-40.397059-101.100606c-4.599761-11.643178-12.181437-6.616698-12.181437-6.616698l-38.98592 26.618241 0.060375-0.025583-58.895365 38.861076c-3.098571 1.927909-1.416256 9.565866 3.429099 17.057491 4.960988 7.487531 11.308557 11.970636 14.346753 10.017144l52.110845-34.323737C827.789223 800.408619 675.443489 919.368988 495.018234 919.368988c-222.203778 0-402.324088-180.149986-402.324088-402.354787 0-222.202755 180.12031-402.352741 402.324088-402.352741 133.827985 0 252.011664 65.577554 325.137125 166.105109l29.328979-17.026792c-78.388325-110.544699-206.92377-182.977381-352.754113-182.977381-239.105726 0-432.853405 193.777355-432.853405 432.854429 0 239.080144 193.778378 432.858522 432.853405 432.858522 192.679347 0 355.666442-126.086673 411.663804-300.128545l20.803815 51.964512c1.264806 3.248997 9.113565 3.217275 17.414625-0.090051C954.917622 694.910866 960.602088 689.528276 959.276906 686.279279z" fill="#FB720D" p-id="1570"></path><path d="M648.63696 298.120818 492.76389 469.36804 331.770196 298.150494 302.656111 313.554322 472.216925 501.915317 321.516668 501.915317 321.516668 536.176632 475.646024 536.176632 475.646024 604.640933 321.485969 604.640933 321.485969 638.932947 475.615325 638.932947 475.615325 758.772336 509.87664 758.772336 509.87664 638.932947 664.011112 638.932947 664.011112 604.640933 509.87664 604.640933 509.87664 536.176632 664.011112 536.176632 664.011112 501.915317 514.993171 503.632425 679.411871 315.26836Z" fill="#FB720D" p-id="1571"></path></svg>