<?xml version="1.0" standalone="no"?><!DOCTYPE svg PUBLIC "-//W3C//DTD SVG 1.1//EN" "http://www.w3.org/Graphics/SVG/1.1/DTD/svg11.dtd"><svg t="1557206854938" class="icon" style="" viewBox="0 0 1024 1024" version="1.1" xmlns="http://www.w3.org/2000/svg" p-id="1391" xmlns:xlink="http://www.w3.org/1999/xlink" width="200" height="200"><defs><style type="text/css"></style></defs><path d="M475.6 959.7c-62.6 0-123.4-12.3-180.7-36.5-55.3-23.4-104.9-56.8-147.5-99.5s-76-92.2-99.4-147.4c-24.2-57.2-36.5-118-36.5-180.7S23.8 372.2 48 315c23.4-55.3 56.8-104.9 99.5-147.5S239.7 91.4 294.9 68c57.2-24.2 118-36.5 180.7-36.5S599 43.8 656.2 68c55.3 23.4 104.9 56.8 147.5 99.5s76.1 92.2 99.5 147.5c24.2 57.2 36.5 118 36.5 180.7 0 10.9-8.8 19.7-19.7 19.7s-19.7-8.8-19.7-19.7C900.2 261.5 709.7 71 475.6 71S51 261.5 51 495.6c0 234.1 190.5 424.6 424.6 424.6 10.9 0 19.7 8.8 19.7 19.7s-8.8 19.8-19.7 19.8z" fill="#FB720D" p-id="1392"></path><path d="M495.3 535.1c-10.9 0-19.7-8.8-19.7-19.7V268.5c0-10.9 8.8-19.7 19.7-19.7 10.9 0 19.7 8.8 19.7 19.7v246.9c0.1 10.9-8.7 19.7-19.7 19.7zM781.7 609.2c-7.3-7.3-7.3-19.1 0-26.3l52.7-52.7c7.3-7.3 19.1-7.3 26.3 0 7.3 7.3 7.3 19.1 0 26.3L808 609.2c-7.2 7.2-19 7.2-26.3 0z" fill="#FB720D" p-id="1393"></path><path d="M702.7 530.2c-7.3 7.3-7.3 19.1 0 26.3l52.7 52.7c7.3 7.3 19.1 7.3 26.3 0 7.3-7.3 7.3-19.1 0-26.3L729 530.2c-7.2-7.3-19-7.3-26.3 0zM228.7 515.4c0-10.9 8.8-19.7 19.7-19.7h246.9c10.9 0 19.7 8.8 19.7 19.7 0 10.9-8.8 19.7-19.7 19.7H248.5c-10.9 0-19.8-8.8-19.8-19.7z" fill="#FB720D" p-id="1394"></path><path d="M934.8 976.3H638.5c-43.6 0-79-35.4-79-79V666.6c0-43.6 35.4-79 79-79h296.2c43.6 0 79 35.4 79 79v230.7c0 43.6-35.4 79-78.9 79zM638.5 627.1c-21.8 0-39.5 17.7-39.5 39.5v230.7c0 21.8 17.7 39.5 39.5 39.5h296.2c21.8 0 39.5-17.7 39.5-39.5V666.6c0-21.8-17.7-39.5-39.5-39.5H638.5z" fill="#FB720D" p-id="1395"></path><path d="M895.3 801.7H697.8c-10.9 0-19.7-8.8-19.7-19.7 0-10.9 8.8-19.7 19.7-19.7h197.5c10.9 0 19.7 8.8 19.7 19.7 0 10.9-8.8 19.7-19.7 19.7z" fill="#FB720D" p-id="1396"></path><path d="M776.8 881.5V702.1c0-10.4 8.5-18.9 18.9-18.9h1.7c10.4 0 18.9 8.5 18.9 18.9v179.4c0 10.4-8.5 18.9-18.9 18.9h-1.7c-10.5 0.1-18.9-8.4-18.9-18.9z" fill="#FB720D" p-id="1397"></path></svg>