<?xml version="1.0" standalone="no"?><!DOCTYPE svg PUBLIC "-//W3C//DTD SVG 1.1//EN" "http://www.w3.org/Graphics/SVG/1.1/DTD/svg11.dtd"><svg t="1563439970185" class="icon" viewBox="0 0 1024 1024" version="1.1" xmlns="http://www.w3.org/2000/svg" p-id="24551" xmlns:xlink="http://www.w3.org/1999/xlink" width="200" height="200"><defs><style type="text/css"></style></defs><path d="M962.943776 906.032256V483.513708c0-45.463984-36.992434-82.385822-82.385823-82.385823h-89.374851V268.971708a39.533899 39.533899 0 0 0-78.997202 0v132.226774H551.65003V268.971708a39.463303 39.463303 0 1 0-78.997202 0v132.226774H312.116958V268.971708a39.533899 39.533899 0 0 0-78.997202 0v132.226774H143.744905c-45.393388 0-82.385822 36.992434-82.385822 82.385822v422.518549a60.430389 60.430389 0 0 0 19.060987 117.825139h863.462718a60.500985 60.500985 0 0 0 19.060988-117.895736zM196.127322 665.652029c64.73676 0 99.187729-90.786776 123.543435-90.786775s79.844357 97.49342 146.275427 97.493419c66.360474 0 112.601017-103.352908 141.192498-103.352908s67.278225 94.1048 122.69628 94.104799 96.646265-94.1048 126.0849-94.104799c16.095945 0 39.110322 21.46126 56.618192 40.804632v142.392633H111.835401V621.388181c19.413968 21.037682 48.782008 44.263848 84.291921 44.263848z m-84.291921 136.956723h800.702653v100.317269H111.835401v-100.317269zM254.933997 205.082103c-6.706644-16.801907-8.400954-68.901939 16.025348-84.080133 13.483884 13.483884 21.884837 28.591481 17.649063 52.947187-4.235775 24.426302 11.2954 22.308415 23.50855 10.095263 12.213151-12.213151 17.649062-34.450969 17.649063-66.360473S298.703671 0 270.959345 0c-21.884837 0-55.488652 68.054784-55.488651 121.00197s28.591481 84.080132 39.463303 84.080133zM494.467069 205.082103c-6.706644-16.801907-8.400954-68.901939 16.025348-84.080133 13.413287 13.483884 21.884837 28.591481 17.649063 52.947187-4.235775 24.426302 11.2954 22.308415 23.50855 10.095263 12.213151-12.213151 17.649062-34.450969 17.649063-66.360473S538.236743 0 510.492417 0c-21.884837 0-55.488652 68.054784-55.488651 121.00197s28.591481 84.080132 39.463303 84.080133zM734.000141 205.082103c-6.706644-16.801907-8.400954-68.901939 15.954752-84.080133 13.483884 13.483884 21.884837 28.591481 17.649062 52.947187-4.165179 24.355706 11.365996 22.237818 23.508551 10.095263 12.213151-12.213151 17.649062-34.450969 17.649062-66.360473S777.769815 0 750.025489 0c-21.814241 0-55.488652 68.054784-55.488651 121.00197s28.591481 84.080132 39.463303 84.080133z" fill="#F6AB00" p-id="24552"></path></svg>