<?xml version="1.0" standalone="no"?><!DOCTYPE svg PUBLIC "-//W3C//DTD SVG 1.1//EN" "http://www.w3.org/Graphics/SVG/1.1/DTD/svg11.dtd"><svg t="1563440310312" class="icon" viewBox="0 0 1024 1024" version="1.1" xmlns="http://www.w3.org/2000/svg" p-id="27808" xmlns:xlink="http://www.w3.org/1999/xlink" width="200" height="200"><defs><style type="text/css"></style></defs><path d="M951.282016 692.568789c9.774577 3.617637 19.479584 7.374414 29.323731 10.644201 21.879747 7.339629 24.523405 10.852911 24.97561 34.124057 0.06957 3.200217 0 6.470005 0 10.748556-14.018344 0-27.236633 0-40.454922 0.06957-11.200761 0.06957-18.644745 5.843875-19.02738 14.609688-0.382635 9.183233 7.478769 16.070657 18.7491 16.244582 13.218289 0.13914 26.367009 0.034785 40.698417 0.034785 0 18.018615 0 34.889327 0 51.655683 0 8.696243 0.20871 17.288131-0.173925 25.914804-0.27828 5.983015 1.704464 9.635437 6.400435 13.948774 4.800326 4.348121 6.922209 11.861675 9.426727 18.296895 1.147904 2.852368 0 6.539575 0.27828 9.844147 1.913173 26.680073-10.748556 32.384809-30.7847 34.297982-7.826619 0.730484-15.653237 1.808819-24.41905 2.852368 3.408927-50.751274-11.722535-93.502004-50.055574-126.478157-28.001902-24.175555-60.943271-35.306746-97.919696-34.054487-27.584483 0.904409-52.664447 9.635437-75.239894 25.11475-22.992866 15.688022-39.863578 36.628575-50.577349 62.404239-10.574631 25.323459-13.809634 51.446973-9.496297 79.135811-114.651267 0-228.29377 0-343.014607 0 6.7135-55.725525-10.470277-102.198247-54.438481-137.122359-30.402065-24.105985-65.952307-32.941368-104.494055-28.662817-68.978599 7.652694-139.418167 75.518174-122.477886 172.498675-14.783613-2.365378-28.941097-4.487261-43.063795-7.200489-2.921938-0.591345-5.80909-3.269787-8.035328-5.530811-10.435492-10.992051-8.626673-44.872614 2.121883-55.48203 3.095862-3.061078 5.391671-8.070113 5.80909-12.418235 1.495754-15.201033 2.191453-30.43685 2.782798-45.637883 0.27828-7.270059 2.226238-11.305116 10.713771-11.931245 10.505061-0.765269 20.870983-3.478497 31.236905-5.496026 10.018072-1.947958 16.244582-9.739792 14.505333-17.98383-1.843604-8.731028-9.913717-13.635709-19.792649-11.89646-10.748556 1.878388-21.462328 3.791562-32.176099 5.704735-2.608873-10.087642 0.55656-16.870711 11.026836-23.758136 30.158571-19.653509 63.065154-33.845778 97.502276-43.342075 38.820029-10.748556 78.405326-18.47082 117.60799-27.793192 4.243767-0.973979 8.731028-2.887153 12.0356-5.635165 44.211699-36.87207 91.971465-68.178545 143.627149-93.606359 45.185678-22.227597 93.745499-29.288946 143.209729-32.489164 53.116652-3.374142 105.955024-0.173925 158.584686 7.861404 24.592975 3.687207 47.272777 12.974794 68.178545 25.845234 32.489164 19.897004 64.769618 40.141857 95.902167 61.98682 17.183776 12.000815 33.984917 17.114206 54.299341 11.583396 9.218018-2.504518 18.923025-3.095862 28.419322-4.556831 12.24431-1.947958 20.557918 2.574088 22.436307 12.24431 2.052313 10.435492-4.069842 17.98383-16.453292 20.453563-2.434948 0.48699-4.904681 0.834839-7.304844 1.287044C951.490726 691.490455 951.386371 692.047014 951.282016 692.568789zM615.641823 604.21496c-118.060194-13.287859-217.858278 26.053944-307.429581 102.441742 100.285074 22.749372 199.596168 10.783341 299.568177 5.530811C610.458863 675.558937 612.998166 640.008696 615.641823 604.21496zM648.791902 607.102113c-2.504518 33.950132-5.009036 67.761125-7.478769 101.954752 46.124873-3.895917 91.032271-7.722264 137.435424-11.583396C745.876758 650.165908 705.87404 617.0854 648.791902 607.102113zM592.301107 778.905089c0 0.06957 0 0.06957 0 0.104355 6.29608 0 12.557375 0 18.81867 0 0.695699 0 1.321829-0.034785 2.017528-0.173925 9.044093-1.391399 15.792377-8.939738 15.096678-16.731571-0.695699-7.930974-7.443984-13.740064-16.627217-13.913989-12.557375-0.20871-25.149535-0.34785-37.706909 0-9.635437 0.27828-16.175012 6.64393-16.383722 15.166248-0.243495 8.348393 6.29608 14.957538 15.931517 15.514097C579.674163 779.218153 586.005028 778.905089 592.301107 778.905089z" p-id="27809" fill="#D4B792"></path><path d="M245.355799 0.06957c61.70854 0 123.451865 0.06957 185.160405-0.034785 29.497656-0.06957 59.238807 27.027923 59.551872 58.125688 0.41742 35.724166 0 71.517902 0.13914 107.242068 0.173925 47.724981 0.591345 95.415178 0.730484 143.070589 0.104355 39.759223 1.078334 79.518446-0.34785 119.208098-1.287044 36.73293-34.958897 61.952035-64.804402 60.699776-22.471092-0.973979-45.046538-0.452205-67.5872-0.521775-18.19254-0.06957-36.385081-0.06957-54.577621 0-22.853726 0.104355-45.707453 0.34785-68.561179 0.48699-14.887968 0.06957-29.810721 0.104355-44.733474 0.104355-39.098308 0-78.127047 0.313065-117.19057-0.13914-16.244582-0.20871-32.036959-1.008764-46.229228-12.52259-17.670766-14.435763-26.019159-32.697873-26.088729-54.090631C0.295672 303.220599 0.121747 184.742985 0.921802 66.265371c0.20871-30.57599 13.635709-55.655955 48.594606-64.700048 3.756777-1.008764 7.791834-1.460969 11.652966-1.460969C122.564848 0.034785 183.960323 0.06957 245.355799 0.06957zM68.439432 50.368639c-9.322372 0.104355-15.688022 6.609145-15.827162 15.548882-0.34785 23.862491-0.104355 328.683199-0.173925 352.510904-0.104355 34.402337 0-34.402337 0 0 0.173925 0 0-177.751206 0.173925-177.751206 0 10.922481-0.20871 166.828725-0.173925 177.751206 0.034785 10.887696 0-10.922481 0 0 0 15.548882 0.06957-15.548882 0 0-0.13914 21.844962-1.147904-21.775392 0 0 0.765269 14.574903 7.443984 19.827434 21.671037 19.653509 29.741151-0.34785 59.551872-0.591345 89.327808-0.730484 38.715674-0.104355 77.466132-0.034785 116.147021 0 15.235818 0 30.43685 0.104355 45.672668 0.20871 31.793464 0.173925 63.552143 0.834839 95.345608 0.27828 12.279095-0.20871 18.60996-5.426456 18.19254-19.166519-0.904409-32.732658 0-65.534887 0-98.30233 0.034785-47.307562-0.173925-94.684693 0-142.02704 0.13914-36.072016-0.104355-72.144032 0-108.216047 0.034785-14.574903-4.348121-19.444799-18.853455-20.557918-2.017528-0.104355-4.000272-0.034785-5.983015 0" p-id="27810" fill="#D4B792"></path><path d="M823.725525 1020.904138c-58.717032 0-104.007066-45.811808-103.902711-105.0854 0.034785-56.977784 46.055303-102.928732 103.102656-102.963517 56.838644 0 103.659216 45.533528 105.328895 99.171955C930.167539 974.4662 878.998845 1022.539031 823.725525 1020.904138zM863.171683 917.314491c0.34785-20.697058-18.19254-39.515728-39.133093-39.759223-20.731843-0.243495-39.550513 18.505605-39.515728 39.307018 0.034785 20.453563 17.949045 38.715674 38.541749 39.376588C843.379034 956.865004 862.823833 937.976765 863.171683 917.314491z" p-id="27811" fill="#D4B792"></path><path d="M94.597731 916.201372c-0.104355-55.586385 45.985733-101.989537 99.728514-103.589646 60.943271-1.878388 108.668252 47.655411 108.355187 102.963517-0.34785 58.821387-45.429173 105.259325-102.859162 105.29411C139.818194 1020.938922 94.667301 976.066309 94.597731 916.201372zM197.839527 877.694409c-20.662273 0.313065-38.576534 18.505605-38.506964 39.133093 0.06957 21.010123 18.7491 39.724438 39.376588 39.341803 21.427543-0.41742 39.133093-18.436035 39.063523-39.724438C237.703105 895.678239 218.884435 877.346559 197.839527 877.694409z" p-id="27812" fill="#D4B792"></path><path d="M134.322169 391.087438c0-97.258781 0-193.404443 0-290.245805C137.487601 100.528569 140.305184 100.041579 143.122766 100.041579c39.133093-0.034785 78.266187-0.869624 117.39928 0.243495 40.594062 1.182689 75.518174 15.618452 93.11937 54.716761 27.306203 60.560636 1.113119 133.922141-79.588015 146.514301-20.731843 3.235002-42.228956 1.774034-63.447789 2.434948-3.582852 0.104355-7.165704 0-11.96603 0 0 29.393301 0 58.021333 0 87.101569C176.725049 391.087438 156.027991 391.087438 134.322169 391.087438zM199.022216 247.390719c17.253346 0 33.428358 0.06957 49.638155-0.06957 3.965487-0.034785 7.896189-0.765269 11.82689-1.460969 22.053672-3.826347 36.698145-19.931789 37.324275-41.081052 0.730484-24.105985-11.687751-42.159386-35.167606-45.568313C241.912086 156.184523 220.658469 156.845438 199.022216 155.871459 199.022216 187.317073 199.022216 216.710374 199.022216 247.390719z" p-id="27813" fill="#D4B792"></path></svg>