<?xml version="1.0" standalone="no"?><!DOCTYPE svg PUBLIC "-//W3C//DTD SVG 1.1//EN" "http://www.w3.org/Graphics/SVG/1.1/DTD/svg11.dtd"><svg t="1563440389042" class="icon" viewBox="0 0 1024 1024" version="1.1" xmlns="http://www.w3.org/2000/svg" p-id="28608" xmlns:xlink="http://www.w3.org/1999/xlink" width="200" height="200"><defs><style type="text/css"></style></defs><path d="M995.3279999999999 969.6142222222222H434.8586666666667c-14.791111111111112 0-26.737777777777776-12.060444444444444-26.737777777777776-26.96533333333333v-62.69155555555555c0-126.97599999999998 76.00355555555555-239.61599999999999 193.536-286.94755555555554l7.054222222222222-2.844444444444444-6.030222222222222-4.778666666666667c-44.48711111111111-35.271111111111104-70.08711111111111-87.83644444444444-70.08711111111111-144.38400000000001 0-101.26222222222222 81.92-183.63733333333332 182.49955555555556-183.63733333333332s182.38577777777778 82.37511111111112 182.38577777777778 183.63733333333332c0 56.547555555555554-25.48622222222222 109.11288888888889-69.97333333333333 144.38400000000001l-6.030222222222222 4.778666666666667 7.054222222222222 2.844444444444444c117.53244444444441 47.33155555555555 193.536 159.97155555555554 193.536 286.94755555555554v62.69155555555555c0.11377777777777778 14.904888888888888-11.946666666666665 26.96533333333333-26.737777777777776 26.96533333333333zM466.4888888888889 389.0062222222222c-10.012444444444444 64.28444444444445 0.22755555555555557 133.68888888888887 41.18755555555556 182.84088888888888l6.826666666666667 5.461333333333333-8.078222222222221 3.1857777777777776C406.18666666666667 620.999111111111 356.57955555555554 710.656 337.8062222222221 814.1937777777778c-18.204444444444444 0.6826666666666666-28.785777777777778 0.5688888888888889-28.785777777777778 0.5688888888888889C159.51644444444446 785.863111111111 42.43911111111112 669.8097777777779 10.35377777777785 518.599111111111c-21.162666666666667-100.01066666666667-2.6168888888888886-202.52444444444444 52.337777777777774-288.65422222222224 54.95466666666666-86.12977777777778 139.60533333333333-145.408 238.2506666666667-166.91199999999998 26.282666666666668-5.688888888888888 53.24799999999998-8.64711111111111 79.872-8.64711111111111 110.13688888888889 0 217.6568888888889 50.858666666666664 288.99555555555554 136.30577777777776 0 0 3.640888888888889 6.257777777777777 9.671111111111111 17.29422222222222-114.80177777777777 0.5688888888888889-200.59022222222222 101.71733333333333-212.99199999999993 181.02044444444442z m-84.19555555555556-153.6h-52.22399999999999V434.6311111111111l-119.46666666666667 120.37688888888884 38.684444444444445 28.671999999999993L382.2933333333333 449.64977777777773V235.4062222222222z m0 0" fill="" p-id="28609"></path></svg>