<?xml version="1.0" standalone="no"?><!DOCTYPE svg PUBLIC "-//W3C//DTD SVG 1.1//EN" "http://www.w3.org/Graphics/SVG/1.1/DTD/svg11.dtd"><svg t="1563439671510" class="icon" viewBox="0 0 1024 1024" version="1.1" xmlns="http://www.w3.org/2000/svg" p-id="19393" xmlns:xlink="http://www.w3.org/1999/xlink" width="200" height="200"><defs><style type="text/css"></style></defs><path d="M397.312 422.61617778h2.73066667-2.73066667zM495.06986667 195.42471111h13.65333333c37.6832 1.09226667 76.45866667 4.9152 114.14186667 0 39.86773333-5.46133333 69.90506667-27.8528 91.20426666-62.2592 13.1072-21.2992 39.3216-62.80533333 18.56853334-85.74293333-9.8304-10.92266667-25.12213333-15.29173333-38.77546667-19.6608-21.84533333-6.5536-43.69066667-10.92266667-66.08213333-15.29173333-94.48106667-16.93013333-191.14666667-12.56106667-283.98933334 11.4688-25.12213333 6.5536-58.9824 15.83786667-58.43626666 48.60586666 0.54613333 31.1296 24.576 64.98986667 45.32906666 85.1968 45.32906667 44.78293333 106.496 41.50613333 164.38613334 37.6832zM396.76586667 628.50844445c-4.9152 0-8.73813333-1.09226667-11.4688-2.73066667 2.73066667 2.18453333 6.5536 2.73066667 11.4688 2.73066667z" p-id="19394" fill="#00C13C"></path><path d="M684.57813333 263.69137778c-157.2864-75.3664-338.60266667-30.58346667-464.21333333 86.8352-62.2592 57.89013333-109.7728 132.7104-132.7104 216.2688-20.75306667 75.91253333-27.8528 160.01706667-3.2768 235.9296 22.39146667 68.26666667 70.4512 121.2416 132.16426667 155.10186667 35.49866667 19.6608 73.728 32.768 112.50346666 41.50613333 55.15946667 12.56106667 112.50346667 9.8304 168.20906667 9.8304l8.192 0.54613333c76.45866667 7.09973333 157.83253333 4.9152 231.0144-18.0224 42.05226667-13.1072 81.92-34.4064 115.78026667-63.35146666 69.35893333-58.9824 101.03466667-140.9024 102.67306666-232.10666667 3.82293333-183.5008-110.31893333-355.5328-270.336-432.5376z m-57.344 310.74986667c21.84533333 0 35.49866667 13.65333333 35.49866667 35.49866666s-13.65333333 34.95253333-35.49866667 34.95253334h-78.6432v45.32906666h78.6432c21.84533333 0 35.49866667 13.65333333 35.49866667 35.49866667s-13.65333333 34.95253333-35.49866667 34.95253333h-78.6432v63.8976c0 13.65333333-2.18453333 22.9376-7.09973333 29.4912-8.73813333 11.4688-25.12213333 11.4688-30.03733333 11.4688-12.01493333 0-21.84533333-3.2768-28.39893334-9.8304-6.5536-6.5536-9.8304-16.384-9.8304-31.1296v-63.8976h-76.45866666c-21.84533333 0-35.49866667-13.65333333-35.49866667-34.95253333 0-21.84533333 13.1072-35.49866667 34.4064-35.49866667H473.77066667v-45.32906666H396.76586667c-21.84533333 0-35.49866667-13.65333333-35.49866667-34.95253334 0-21.84533333 13.1072-35.49866667 34.4064-35.49866666H435.54133333l-26.2144-42.5984c-13.65333333-22.39146667-27.8528-45.32906667-41.50613333-67.72053334v-1.09226666c-10.92266667-20.20693333-7.64586667-39.3216 9.28426667-50.24426667 7.09973333-4.9152 14.19946667-7.09973333 20.75306666-7.09973333 1.6384 0 3.82293333 0 5.46133334 0.54613333 9.28426667 1.6384 16.93013333 8.192 24.02986666 19.11466667l85.74293334 142.5408c12.56106667-20.75306667 24.576-42.05226667 37.13706666-62.80533334 15.29173333-25.66826667 30.58346667-51.88266667 45.8752-77.55093333 5.46133333-8.73813333 14.19946667-20.75306667 28.39893334-20.75306667h1.09226666c7.09973333 0.54613333 14.19946667 2.73066667 21.84533334 7.09973334 12.56106667 7.64586667 15.83786667 17.47626667 16.384 24.02986666 0.54613333 8.192-2.18453333 16.93013333-8.192 26.76053334l-66.08213334 109.7728h37.6832z" p-id="19395" fill="#00C13C"></path><path d="M396.76586667 744.83484445c-4.9152 0-8.73813333-1.09226667-11.4688-2.73066667 2.73066667 1.6384 6.5536 2.73066667 11.4688 2.73066667zM622.86506667 423.16231111h1.09226666-1.09226666z" p-id="19396" fill="#00C13C"></path></svg>