<?xml version="1.0" standalone="no"?><!DOCTYPE svg PUBLIC "-//W3C//DTD SVG 1.1//EN" "http://www.w3.org/Graphics/SVG/1.1/DTD/svg11.dtd"><svg t="1563439175344" class="icon" viewBox="0 0 1024 1024" version="1.1" xmlns="http://www.w3.org/2000/svg" p-id="8543" xmlns:xlink="http://www.w3.org/1999/xlink" width="200" height="200"><defs><style type="text/css"></style></defs><path d="M512.288 39.808c-265.248 0-480.272 215.024-480.272 480.272S247.04 1000.352 512.288 1000.352c265.232 0 480.272-215.008 480.272-480.272-0.016-265.248-215.04-480.272-480.272-480.272zM749.68 687.04h-61.088v-105.904h61.088v105.904z m112.688 78.048h-24.592V577.36a6.512 6.512 0 0 0-1.52-4.288c-23.456-27.856-46.528-56.016-67.344-85.904-5.296-7.648-10.192-15.616-15.392-23.472a86.016 86.016 0 0 0-2.976 3.168c-29.184 31.216-61.52 58.672-98.256 80.912-21.424 12.944-43.968 23.456-68.256 29.776-1.344 0.304-2.656 0.72-3.984 1.008-1.344 0.32-2.64 0.624-4.192 1.024v183.728h-39.888V584.064H368.032c36.432-19.888 72.848-39.68 109.264-59.68-7.952-10.304-15.6-19.888-22.96-29.776-7.248-9.888-14.08-20.096-21.216-30.4-0.4 0.512-1.232 1.328-2.032 2.144-21.728 23.264-45.92 43.664-73.152 60.304-17.968 10.928-36.832 19.6-57.44 24.368-0.4 0.112-0.816 0.224-1.328 0.416v138.544H268.96v-137.424h-126.4c-0.112-0.112-0.112-0.32-0.208-0.4 0.624-0.336 1.232-0.624 1.84-0.928 35.808-18.176 71.312-36.944 105.792-57.536 15.824-9.392 31.424-19.088 45.92-30.512 5.296-4.192 10.512-8.576 14.384-14.192 0.4-0.512 1.536-0.816 2.24-0.816 13.776-0.32 99.68-1.632 128.864-2.24 1.936 0 2.96 0.608 3.984 2.144 2.752 4.384 5.808 8.576 8.976 13.264v-74.992h-134.048c0-0.096-0.096-0.32-0.096-0.512 0.704-0.4 1.328-0.816 2.032-1.216 38.064-20.4 75.712-41.408 112.128-64.48 14.688-9.296 29.184-18.672 42.336-30.096 4.176-3.568 7.552-7.952 11.424-11.936 0.496-0.512 1.536-0.816 2.336-0.816 0 0 128.96-2.144 128.864-2.256 1.728 0 2.752 0.416 3.872 1.952 23.264 34.368 47.952 67.536 76.112 98.144 2.96 3.168 6.016 6.336 9.28 9.792-2.448 0.512-4.704 0.912-6.848 1.328-4.896 0.928-9.872 1.936-14.88 2.752-0.72 0.112-1.824-0.192-2.272-0.704-23.36-27.136-46.496-54.576-66.512-84.464-2.336-3.472-4.496-7.152-6.848-10.912-0.8 0.816-1.504 1.632-2.336 2.448-21.824 23.36-46.096 43.872-73.456 60.592-18.16 11.12-37.44 19.792-58.544 24.496v109.776c0 1.12 0.4 2.432 1.12 3.36 5.104 6.736 10.416 13.472 15.616 20.208a7.088 7.088 0 0 0 0.912-0.32c22.944-13.68 45.824-27.552 67.232-43.568 7.04-5.2 13.68-10.912 20.208-16.72 3.168-2.864 5.504-6.528 8.368-9.696 0.496-0.608 1.632-0.912 2.448-1.024 20.48-0.4 168.032-2.752 172.416-2.96 1.408-0.096 2.336 0.416 3.136 1.648 23.872 35.712 49.184 70.288 76.944 103.04 11.328 13.472 23.456 26.224 35.296 39.28 0.384 0.512 0.912 1.024 1.536 1.728-6.512 1.648-13.04 2.864-19.792 4.192 0.032 58.56 0.032 117.024 0.032 175.68z" fill="#68C34C" p-id="8544"></path></svg>