<?xml version="1.0" standalone="no"?><!DOCTYPE svg PUBLIC "-//W3C//DTD SVG 1.1//EN" "http://www.w3.org/Graphics/SVG/1.1/DTD/svg11.dtd"><svg t="1563439561772" class="icon" viewBox="0 0 1078 1024" version="1.1" xmlns="http://www.w3.org/2000/svg" p-id="16286" xmlns:xlink="http://www.w3.org/1999/xlink" width="210.546875" height="200"><defs><style type="text/css"></style></defs><path d="M597.056741 576.268959 415.694786 747.758238l27.322823 198.793582-68.460513 69.706669L246.095906 808.756369 20.031093 654.652416l67.711761-69.428863 208.527355 41.05964 170.346309-189.477841-449.162401-166.418669 117.23256-119.419285 498.864434 96.84032L799.51074 81.776652c50.625406-51.204829 102.110686-79.412661 144.960186-79.412661 24.105572 0 44.927749 8.768068 61.888431 26.062116 9.713929 9.84754 26.125614 31.394657 26.818805 64.974717 0.910143 44.026866-25.079214 93.300285-77.244456 146.451075L788.534781 407.174097l85.598461 494.479077-117.797431 119.984156L597.056741 576.268959zM775.693556 933.371938l46.917365-47.716386-85.717521-494.84287L921.890637 206.031075c59.987448-61.109253 78.771062-114.921484 50.219281-143.921723-8.237592-8.335485-17.901251-12.390121-29.538652-12.390121-16.477829 0-52.566075 8.557729-109.1471 65.868986L649.409831 299.811567l-498.636898-96.872069-47.324813 48.224373 445.95441 165.295542L313.725649 678.599243 130.314549 642.472634l-9.695409 22.683473 164.892062 116.080329 79.73809 128.735027 23.208658-8.357974-23.637272-171.735336 252.662697-238.913975L775.693556 933.371938z" fill="#1296db" p-id="16287"></path><path d="M598.748708 569.19815 411.478758 746.273963l27.334729 198.884861-63.543357 64.699557L249.032706 805.947888 26.185144 654.037276l62.901759-64.495833 208.63054 41.07816 175.767483-195.507541L24.59107 268.791286l111.43701-113.513936 498.841945 96.836351L802.321866 84.586456c49.908403-50.481212 100.368449-78.248524 142.147737-78.248524 22.998319 0 42.865375 8.367234 59.050847 24.870199 9.326324 9.454644 25.017039 30.070451 25.682449 62.27339 0.887654 42.91829-24.723359 91.229974-76.108099 143.584387L784.26716 405.820788l85.60243 494.501566-111.925154 114.003403L598.748708 569.19815zM774.084931 940.67822l52.790965-53.689203-85.713552-494.821704 183.536774-183.32379c61.729685-62.883239 80.511976-118.77901 50.243093-149.522809-9.033967-9.142444-19.615708-13.575424-32.370945-13.575424-17.098262 0-54.379747 8.711184-111.976746 67.051643L648.09224 295.505583 149.432853 198.629545l-53.11904 54.129723 446.220309 165.394758L312.278415 674.262833 127.9241 637.95102l-12.226084 28.602051 166.860512 117.46671 81.006735 130.78285 29.268784-10.540731-23.797341-172.900795 246.753379-233.326118L774.084931 940.67822z" fill="#1296db" p-id="16288"></path></svg>