<?xml version="1.0" standalone="no"?><!DOCTYPE svg PUBLIC "-//W3C//DTD SVG 1.1//EN" "http://www.w3.org/Graphics/SVG/1.1/DTD/svg11.dtd"><svg t="1563439146033" class="icon" viewBox="0 0 1024 1024" version="1.1" xmlns="http://www.w3.org/2000/svg" p-id="7759" xmlns:xlink="http://www.w3.org/1999/xlink" width="200" height="200"><defs><style type="text/css"></style></defs><path d="M670.811219 527.82332c-11.560416 0-20.953255 9.284459-21.224202 20.772623l0 0.379326c0 0.036126 0 0.036126 0 0.036126 0 0.036126 0 0.036126 0 0.036126l0 148.352655 0 0.036126 0 0.036126 0 0.036126c0.072253 11.704922 9.555407 21.133886 21.224202 21.133886 11.722985 0 21.224202-9.483154 21.224202-21.206139 0-0.072253 0-0.144505 0-0.216758l0-147.955265c0-0.072253 0-0.144505 0-0.252884 0-0.072253 0-0.144505 0-0.252884l0-0.180632C691.764473 537.089716 682.389698 527.82332 670.811219 527.82332z" fill="#fc553e" p-id="7760"></path><path d="M580.892856 305.321432l-0.036126 0 0-0.018063L359.131558 305.303369c-0.415452-0.018063-0.830905-0.054189-1.264421-0.054189-8.688375 0-15.733004 7.044629-15.733004 15.751067 0 0.072253 0 0.162568 0 0.252884l0 397.533815 254.491727 0L596.62586 321.090563c0-0.018063 0-0.036126 0-0.036126C596.607797 312.366061 589.581231 305.321432 580.892856 305.321432zM448.200953 563.0284c0 9.808291-8.038102 17.810266-17.846393 17.810266l-17.322561 0c-9.790228 0-17.810266-8.001976-17.810266-17.810266l0-49.095643c0-9.808291 8.020039-17.846393 17.810266-17.846393l17.322561 0c9.808291 0 17.846393 8.038102 17.846393 17.846393L448.200953 563.0284zM448.200953 435.791568c0 9.826354-8.001976 17.846393-17.82833 17.846393l-17.286435 0c-9.826354 0-17.846393-8.020039-17.846393-17.846393L395.239795 386.732052c0-9.790228 8.020039-17.846393 17.846393-17.846393l17.286435 0c9.826354 0 17.82833 8.038102 17.82833 17.846393L448.200953 435.791568zM543.538261 563.0284c0 9.808291-8.020039 17.810266-17.846393 17.810266l-17.286435 0c-9.826354 0-17.82833-8.001976-17.82833-17.810266l0-49.095643c0-9.808291 8.001976-17.846393 17.82833-17.846393l17.286435 0c9.826354 0 17.846393 8.038102 17.846393 17.846393L543.538261 563.0284zM543.59245 435.881884c0 9.808291-8.038102 17.82833-17.846393 17.82833l-17.304498 0c-9.808291 0-17.846393-8.020039-17.846393-17.82833l0-49.059517c0-9.808291 8.038102-17.82833 17.846393-17.82833l17.304498 0c9.808291 0 17.846393 8.020039 17.846393 17.82833L543.59245 435.881884z" fill="#fc553e" p-id="7761"></path><path d="M512.018063 6.972376c-278.93117 0-505.027624 226.114518-505.027624 505.045687 0 278.913106 226.096454 505.027624 505.027624 505.027624 278.913106 0 505.009561-226.114518 505.009561-505.027624C1017.027624 233.06883 790.93117 6.972376 512.018063 6.972376zM761.723055 771.748104 761.723055 771.748104l-0.668337 0c0 0 0 0-0.018063 0 0 0 0 0-0.036126 0L263.035597 771.748104c-0.018063 0-0.054189 0-0.054189 0-0.018063 0-0.018063 0-0.054189 0l-0.487705 0 0 0c-14.396331-0.325137-25.956747-12.066185-25.956747-26.498642 0-14.649215 11.849427-26.498642 26.498642-26.498642 0.3432 0 0.668337 0 1.011536 0.036126l25.234221 0L289.227165 284.043041c0-0.072253-0.018063-0.162568-0.018063-0.270947 0-17.358688 14.107321-31.466008 31.484071-31.466008L616.495325 252.306086c0.523831-0.018063 1.0296-0.036126 1.553431-0.036126 17.376751 0 31.466008 14.089257 31.466008 31.466008 0 0.28901 0 0.596084-0.036126 0.885094l0 190.29529 52.328947 0c0.3432 0 0.668337-0.018063 1.047663-0.018063 17.304498 0 31.357629 14.017005 31.447945 31.321503l0.018063 0 0 212.549092 25.703863 0c0.3432-0.036126 0.668337-0.036126 1.011536-0.036126 14.649215 0 26.498642 11.849427 26.498642 26.498642C787.535297 759.645793 776.065197 771.350714 761.723055 771.748104z" fill="#fc553e" p-id="7762"></path></svg>