<?xml version="1.0" standalone="no"?><!DOCTYPE svg PUBLIC "-//W3C//DTD SVG 1.1//EN" "http://www.w3.org/Graphics/SVG/1.1/DTD/svg11.dtd"><svg t="1563440562940" class="icon" viewBox="0 0 1024 1024" version="1.1" xmlns="http://www.w3.org/2000/svg" p-id="30953" xmlns:xlink="http://www.w3.org/1999/xlink" width="200" height="200"><defs><style type="text/css"></style></defs><path d="M522.269145 0c-29.361231 0-60.356923 6.301538-93.833847 18.648615-33.732923 12.347077-94.641231 60.356923-121.796923 133.316923 0 0-47.970462 160.590769 85.58277 285.873231l10.988307 11.52c71.876923 72.979692 174.749538 113.309538 175.300923 227.977846 4.686769 91.076923-76.012308 180.243692-172.839384 184.359385h-8.231385c-49.388308 0-92.731077-18.648615-108.898461-30.72-14.276923-10.436923-27.451077-21.661538-39.522462-32.925538-13.705846-19.495385-81.191385-107.539692-15.084308-215.355077 29.853538-44.662154 80.029538-90.88 132.096-127.369847-33.181538-30.680615-122.584615-129.063385-92.908307-276.105846-376.32 302.808615-174.493538 683.342769-12.307693 775.75877 61.44 41.412923 141.292308 62.818462 224.413539 62.818461 131.150769 0 270.493538-52.381538 361.294769-160.492308 128.118154-152.260923 219.214769-500.657231-167.601231-794.190769C626.244529 20.834462 576.580529 0 522.269145 0z" fill="#FF862E" p-id="30954"></path></svg>