<?xml version="1.0" standalone="no"?><!DOCTYPE svg PUBLIC "-//W3C//DTD SVG 1.1//EN" "http://www.w3.org/Graphics/SVG/1.1/DTD/svg11.dtd"><svg t="1563440211725" class="icon" viewBox="0 0 1024 1024" version="1.1" xmlns="http://www.w3.org/2000/svg" p-id="27012" xmlns:xlink="http://www.w3.org/1999/xlink" width="200" height="200"><defs><style type="text/css"></style></defs><path d="M902.311497 200.246697c-43.560098-79.510892-148.09185-75.876108-226.821959 2.15406-79.113849 78.404698-86.896092 180.62787-9.076726 231.639684 51.260477 70.060659 152.599514 71.405283 231.711316-6.999414C976.857307 349.013929 984.179063 241.792928 902.311497 200.246697L902.311497 200.246697z" p-id="27013" fill="#F35420"></path><path d="M135.632073 368.284831c-7.93267-9.028631-7.048533-22.781866 1.980097-30.723745 9.046027-7.902994 22.76447-7.021927 30.696116 1.972934 0.929162 1.037632 48.184419 53.271274 121.243365 74.590835 28.716019-16.090467 62.362326-24.797779 100.231819-24.168446 36.552497-24.122397 74.750471-34.047444 112.080681-32.144094 0.874927-6.517437 1.654686-13.085016 1.791809-19.995403 41.86141-105.101733-26.811646-217.911008-168.143535-250.971985C194.857966 53.943586 71.414493 120.090099 82.226746 239.237733c-54.494125 97.537454 10.943236 203.690122 137.157823 242.771209 8.398274-13.355169 18.131963-25.394367 28.883841-36.207643C179.971931 417.779082 138.133034 371.129622 135.632073 368.284831L135.632073 368.284831z" p-id="27014" fill="#F35420"></path><path d="M401.456325 433.29138c-136.38318-2.267647-209.481012 137.093355-166.109202 298.122865 43.580564 161.815409 171.420161 248.117984 296.060903 184.375218 129.765459-14.836917 206.996424-146.31232 163.414837-308.123636C651.450029 446.632223 516.735861 357.211635 401.456325 433.29138L401.456325 433.29138zM436.652941 867.503736c-4.300956 5.26798-10.564613 8.008394-16.881482 8.008394-4.828982 0-9.700943-1.599428-13.737886-4.897543-172.72897-140.855028-94.954629-333.962118-94.146217-335.88491 4.615111-11.102872 17.324574-16.387225 28.459169-11.731182 11.085476 4.623297 16.32992 17.358343 11.722996 28.446889-2.907213 7.089465-65.463967 165.610852 81.47257 285.440008C442.859293 844.484464 444.245873 858.18551 436.652941 867.503736L436.652941 867.503736z" p-id="27015" fill="#F35420"></path></svg>