<?xml version="1.0" standalone="no"?><!DOCTYPE svg PUBLIC "-//W3C//DTD SVG 1.1//EN" "http://www.w3.org/Graphics/SVG/1.1/DTD/svg11.dtd"><svg t="1563440046937" class="icon" viewBox="0 0 1024 1024" version="1.1" xmlns="http://www.w3.org/2000/svg" p-id="25587" xmlns:xlink="http://www.w3.org/1999/xlink" width="200" height="200"><defs><style type="text/css"></style></defs><path d="M711.2704 327.8848c27.2384-8.8064 56.1152-11.0592 84.992-4.9152 100.9664 21.2992 162.4064 134.7584 137.216 253.5424-25.1904 118.784-127.5904 197.8368-228.5568 176.5376-63.0784-13.312-128-57.9584-148.6848-122.0608" fill="#FFD96E" p-id="25588"></path><path d="M972.3904 389.7344c-37.4784-57.5488-94.4128-97.0752-160.3584-110.7968-37.6832-7.9872-75.776-7.168-113.0496 2.2528-6.3488-25.8048-15.7696-50.7904-28.4672-73.9328-37.4784-69.8368-98.7136-120.6272-172.4416-142.5408-26.4192-7.9872-54.0672-12.0832-81.7152-12.0832C280.576 52.4288 156.2624 149.504 114.2784 288.3584c-26.0096 86.016-17.6128 178.9952 23.3472 255.1808 26.0096 48.3328 63.0784 87.4496 107.9296 114.2784h-29.9008c-7.9872 0-14.9504 5.5296-16.9984 13.312-1.8432 7.7824 1.6384 15.9744 8.8064 19.6608l53.4528 28.0576c-6.7584 19.6608-26.4192 64.512-70.656 77.0048-17.8176 5.12-31.5392 0.4096-47.5136-4.9152-39.3216-13.5168-73.9328-18.8416-132.096 42.1888-6.5536 6.9632-6.3488 18.0224 0.6144 24.7808 3.2768 3.072 7.5776 4.9152 12.0832 4.7104 4.7104 0 9.216-1.8432 12.6976-5.3248 47.3088-49.7664 67.584-42.8032 95.4368-33.1776 17.8176 6.144 40.1408 13.7216 68.4032 5.5296 55.9104-15.9744 81.92-66.7648 92.16-94.208l51.4048 27.0336c2.4576 1.2288 5.3248 2.048 8.192 2.048h0.4096c9.6256 0 17.408-7.7824 17.408-17.408 0-4.9152-1.8432-9.216-5.12-12.288l-28.672-41.7792c18.432 3.6864 37.0688 5.5296 55.9104 5.5296 45.056 0 88.8832-10.6496 128.8192-29.9008 19.8656 42.3936 49.9712 78.0288 86.6304 103.6288l-38.0928 3.072c-7.9872 0.6144-14.5408 6.7584-15.7696 14.5408-1.2288 7.9872 3.072 15.7696 10.4448 18.8416l42.3936 17.8176c-0.6144 17.6128-4.5056 43.2128-21.0944 56.5248-7.5776 6.144-18.432 6.7584-35.2256 7.3728-29.0816 1.024-69.0176 2.4576-99.5328 53.4528-4.9152 8.3968-2.2528 19.0464 5.9392 23.9616 8.192 4.9152 19.0464 2.2528 23.9616-5.9392 20.6848-34.816 44.032-35.4304 70.8608-36.4544 19.0464-0.6144 38.7072-1.4336 55.9104-14.9504 22.528-18.0224 30.72-46.4896 33.1776-69.4272L675.84 856.064c2.2528 0.8192 4.5056 1.4336 6.7584 1.4336h0.4096c9.6256 0 17.408-7.7824 17.408-17.408 0-5.3248-2.2528-10.0352-6.144-13.312l-16.5888-20.2752c6.9632 2.048 13.9264 3.8912 21.0944 5.5296 16.9984 3.4816 34.2016 5.3248 51.4048 5.3248 121.6512 0 232.6528-89.2928 259.8912-218.112 15.7696-73.728 2.4576-148.0704-37.6832-209.5104z m-13.312 198.2464c-25.1904 118.5792-137.0112 195.9936-249.2416 172.4416-63.6928-13.5168-116.736-57.5488-143.9744-118.9888 59.1872-41.984 105.472-104.448 128.2048-178.9952 12.9024-42.5984 17.408-86.8352 13.5168-130.048l0.2048 0.8192c30.9248-8.3968 62.464-9.4208 93.5936-2.8672 52.224 11.0592 97.4848 42.1888 127.1808 88.2688 32.3584 49.3568 43.2128 109.7728 30.5152 169.3696z m0 0" fill="#4DC2DA" p-id="25589"></path><path d="M350.0032 171.8272c-10.8544 0-20.8896-6.7584-24.7808-17.6128-4.7104-13.7216 2.4576-28.672 15.9744-33.3824 4.5056-1.6384 9.0112-3.072 13.7216-4.5056 12.4928-3.6864 24.9856-6.7584 37.6832-8.8064 15.1552-2.6624 30.5152-4.096 45.6704-4.3008h0.4096c14.336 0 26.0096 11.4688 26.2144 25.8048 0.2048 14.5408-11.264 26.4192-25.8048 26.624-12.4928 0.2048-25.1904 1.4336-37.6832 3.4816-10.6496 1.8432-21.0944 4.3008-31.3344 7.3728-3.8912 1.2288-7.7824 2.4576-11.4688 3.6864-2.6624 1.2288-5.5296 1.6384-8.6016 1.6384z m-171.4176 204.8c-2.4576 0-4.7104-0.4096-7.168-1.024-13.9264-3.8912-21.9136-18.432-18.0224-32.3584 4.3008-15.1552 9.8304-30.1056 16.1792-44.6464 6.5536-14.9504 14.1312-29.2864 22.7328-43.2128 5.7344-9.216 11.8784-18.0224 18.432-26.8288 4.3008-5.7344 8.8064-11.264 13.312-16.5888 5.7344-6.5536 11.4688-12.9024 17.6128-19.0464 10.24-10.24 26.8288-10.24 37.0688 0 10.24 10.24 10.24 26.8288 0 37.0688-5.12 5.12-10.24 10.4448-14.9504 15.9744-3.8912 4.5056-7.7824 9.216-11.264 14.1312-5.5296 7.3728-10.6496 14.9504-15.5648 22.7328-7.3728 11.8784-13.7216 24.1664-19.2512 36.864-5.5296 12.288-10.0352 24.9856-13.7216 37.888-3.4816 11.6736-13.9264 19.0464-25.3952 19.0464z m0 0" fill="#FFFFFF" p-id="25590"></path></svg>