<?xml version="1.0" standalone="no"?><!DOCTYPE svg PUBLIC "-//W3C//DTD SVG 1.1//EN" "http://www.w3.org/Graphics/SVG/1.1/DTD/svg11.dtd"><svg t="1563439345424" class="icon" viewBox="0 0 1024 1024" version="1.1" xmlns="http://www.w3.org/2000/svg" p-id="11440" xmlns:xlink="http://www.w3.org/1999/xlink" width="200" height="200"><defs><style type="text/css"></style></defs><path d="M565.716476 384.51814c5.115855-20.46342-2.557927-30.695129-25.579274-28.137202-15.347565 2.557927-28.137202 7.673782-43.484767 12.789638-94.643315 38.368912-194.402485 63.948186-299.27751 48.600621-38.368912-5.115855-74.179896-10.23171-107.432952-33.253057-7.673782-5.115855-7.673782 2.557927-10.23171 5.115855-25.579274 46.042694-46.042694 92.085388-58.832331 143.243937C0.414512 612.173682-2.143415 691.469433 25.993787 768.207256c17.905492 48.600621 51.158549 76.737823 102.317097 89.52746 35.810984 7.673782 71.621968 2.557927 107.432953-2.557927 66.506113-10.23171 120.22259-38.368912 161.149428-94.643315 33.253057-48.600621 63.948186-97.201243 89.527461-148.359792 2.557927-7.673782 7.673782-10.23171 15.347564-15.347564 17.905492-7.673782 35.810984-12.789637 51.158549-23.021347 2.557927-2.557927 5.115855 0 5.115855 0-17.905492 40.926839-38.368912 79.295751-63.948186 117.664662-5.115855 7.673782-10.23171 15.347565-10.23171 25.579274-2.557927 10.23171 2.557927 12.789637 10.23171 10.23171 10.23171-2.557927 20.46342-10.23171 28.137202-15.347565 48.600621-35.810984 94.643315-76.737823 138.128081-117.664662 102.317098-102.317098 196.960413-209.75005 294.161656-317.183002C995.448286 231.042494 1015.911706 179.883945 1018.469633 121.051614c2.557927-40.926839-10.23171-76.737823-46.042694-99.75917-33.253057-20.46342-69.064041-25.579274-104.875025-17.905492-153.475646 30.695129-304.393365 66.506113-452.753157 115.106734-51.158549 17.905492-104.875025 30.695129-150.917719 63.948186-51.158549 33.253057-89.52746 74.179896-125.338444 117.664663 5.115855 5.115855 10.23171 5.115855 15.347564 7.673782 33.253057 10.23171 66.506113 15.347565 99.759171 17.905492 102.317098 5.115855 202.076268-12.789637 301.835437-38.368912 133.012227-35.810984 260.908599-86.969533 386.247044-143.243936 2.557927-2.557927 7.673782-5.115855 12.789637-2.557928-2.557927 5.115855-7.673782 5.115855-10.23171 7.673783-84.411605 46.042694-168.823211 92.085388-253.234816 133.012227-28.137202 15.347565-48.600621 38.368912-61.390259 66.506113-20.46342 51.158549-40.926839 102.317098-58.832331 153.475646-2.557927 5.115855-2.557927 10.23171-7.673782 12.789638-15.347565 10.23171-33.253057 17.905492-53.716476 25.579274 0-2.557927 0-5.115855 2.557927-5.115855 23.021347-51.158549 38.368912-99.75917 53.716476-150.917719z m388.804971-250.676889l2.557927-2.557927s2.557927 0 2.557928 2.557927h-5.115855c0 2.557927 0 0 0 0z" fill="#FE7E1E" p-id="11441"></path></svg>