<?xml version="1.0" standalone="no"?><!DOCTYPE svg PUBLIC "-//W3C//DTD SVG 1.1//EN" "http://www.w3.org/Graphics/SVG/1.1/DTD/svg11.dtd"><svg t="1563440468134" class="icon" viewBox="0 0 1108 1024" version="1.1" xmlns="http://www.w3.org/2000/svg" p-id="29484" xmlns:xlink="http://www.w3.org/1999/xlink" width="216.40625" height="200"><defs><style type="text/css"></style></defs><path d="M1079.069 814.354l-76.17 0.232c2.32 6.262 3.842 12.859 3.842 19.844 0 33.271-28.633 60.229-63.941 60.229-35.332 0-63.951-26.957-63.951-60.229 0-6.855 1.48-13.324 3.723-19.482l-228.311 0.67-19.393 0.051c-5.477 43.863-38.492 77.727-78.824 77.727-40.216 0-73.166-33.682-78.771-77.365l-55.345 0.129c11.34-13.248 21.417-27.783 30.153-43.322l29.045-0.285c11.107-34.791 40.307-59.814 74.918-59.814 34.148 0 63.076 24.301 74.533 58.348l21.402-0.234s3.041-56.852 0-70.254c-3.055-13.348-74.609-53.5-74.609-53.5l-89.904 11.029c0.785-8.736 1.224-17.576 1.224-26.545 0-57.109-16.249-109.992-43.786-153.599V350.978l-80.91 45.848c-30.849-19.226-65.834-31.209-103.139-34.146 137.569-83.888 340.341-205.376 385.416-220.787 0 0 10.27-8.788 28.543-11.313l210.115-1.237s219.254 25.102 223.828 304.88v356.32c-0.001-0.002-6.856 23.811-29.688 23.811z m-521.016-62.729c-25.385 0-45.963 22.473-45.963 50.203 0 27.705 20.579 50.178 45.963 50.178 25.387 0 45.951-22.473 45.951-50.178 0-27.73-20.564-50.203-45.951-50.203z m57.381-474.251l-146.177 63.579v175.635l147.699-48.503-1.522-190.711z m184.228 396.472h182.723V653.77H799.662v20.076z m0-40.151h182.723v-20.078H799.662v20.078z m-57.857 58.553c20.18 0 36.545-17.99 36.545-40.152 0-22.164-16.365-40.154-36.545-40.154-20.178 0-36.543 17.99-36.543 40.154 0 22.162 16.365 40.152 36.543 40.152z m223.828-411.524c-35.023-11.701-278.643-8.351-278.643-8.351l4.574 281.015h376.086c1.52-214.111-66.992-260.963-102.017-272.664z m85.268 331.217c-20.193 0-36.545 17.99-36.545 40.154 0 22.162 16.352 40.152 36.545 40.152 20.178 0 36.543-17.99 36.543-40.152 0-22.163-16.366-40.154-36.543-40.154z m-603.086 28.916c0 135.869-100.239 245.992-223.905 245.992-123.653 0-223.905-110.123-223.905-245.992 0-135.868 100.252-246.015 223.905-246.015 123.666 0 223.905 110.148 223.905 246.015zM166.942 526.02c4.304-9.484 8.195-18.556 11.661-27.214H129.341c-13.839 37.162-34.573 72.599-62.226 106.281 0.851 3.48 2.59 8.66 5.181 15.568 5.193 14.715 9.509 26.389 12.976 34.998 2.59-2.578 6.03-6.908 10.36-12.939 4.317-5.205 7.345-9.07 9.071-11.674v107.598c0 37.162 20.309 55.744 60.938 55.744h128.343c38.89 0 61.35-10.387 67.406-31.105 5.18-16.418 9.071-32.422 11.662-47.988-10.373-2.578-23.324-7.32-38.89-14.252-0.863 12.963-3.028 25.488-6.481 37.602-1.74 12.963-12.538 19.432-32.408 19.432h-117.97c-19.883 0-29.818-10.361-29.818-31.107v-23.322h89.453c2.59 7.783 3.892 14.689 3.892 20.721 27.653 0 46.672-0.412 57.033-1.289 25.926-1.701 39.74-20.721 41.492-57.033 0.851-20.746 1.727-51.852 2.59-93.346 0.851-20.746 1.301-36.285 1.301-46.672H166.942z m114.078 158.16c-2.59 0-6.056-0.438-10.373-1.287h-11.674V592.15H130.63c0.863-1.729 2.603-4.742 5.193-9.072 5.181-7.783 8.633-13.814 10.374-18.143h151.667c-0.864 41.467-1.289 74.324-1.289 98.5-0.878 13.838-6.058 20.745-15.555 20.745z m-66.117-15.539h-67.419v-41.492h67.419v41.492z" p-id="29485" fill="#13227a"></path></svg>