<?xml version="1.0" standalone="no"?><!DOCTYPE svg PUBLIC "-//W3C//DTD SVG 1.1//EN" "http://www.w3.org/Graphics/SVG/1.1/DTD/svg11.dtd"><svg t="1563438971712" class="icon" viewBox="0 0 1024 1024" version="1.1" xmlns="http://www.w3.org/2000/svg" p-id="2836" xmlns:xlink="http://www.w3.org/1999/xlink" width="200" height="200"><defs><style type="text/css"></style></defs><path d="M98.885818 651.636364C126.999273 484.072727 254.603636 350.208 418.909091 312.925091V279.272727a93.090909 93.090909 0 1 1 186.181818 0v33.652364C769.396364 350.208 897.000727 484.049455 925.114182 651.636364h17.431273a34.909091 34.909091 0 0 1 0 69.818181h-861.09091a34.909091 34.909091 0 0 1 0-69.818181h17.431273zM558.545455 305.105455V279.272727a46.545455 46.545455 0 1 0-93.09091 0v25.832728a423.517091 423.517091 0 0 1 93.09091 0zM81.454545 791.272727h861.09091a34.909091 34.909091 0 0 1 0 69.818182h-861.09091a34.909091 34.909091 0 0 1 0-69.818182z m149.341091-200.145454c34.490182-63.790545 87.086545-116.363636 150.853819-150.877091a23.272727 23.272727 0 1 0-20.363637-41.797818l-0.046545-0.069819a420.817455 420.817455 0 0 0-172.520728 172.683637h0.069819a23.272727 23.272727 0 0 0 42.007272 20.014545v0.023273z" fill="#FDA70F" p-id="2837"></path></svg>