<?xml version="1.0" standalone="no"?><!DOCTYPE svg PUBLIC "-//W3C//DTD SVG 1.1//EN" "http://www.w3.org/Graphics/SVG/1.1/DTD/svg11.dtd"><svg t="1557208504642" class="icon" style="" viewBox="0 0 1152 1024" version="1.1" xmlns="http://www.w3.org/2000/svg" p-id="1230" xmlns:xlink="http://www.w3.org/1999/xlink" width="225" height="200"><defs><style type="text/css"></style></defs><path d="M1088.96704 258.944S603.20704 564.416 419.14304 638.016a30.848 30.848 0 0 1-21.888 0.128c-17.472-8.192-53.248-103.296-82.88-164.736-29.632-61.952-64.768-117.376-42.24-123.392 38.4-10.432 120.512 101.632 167.808 123.392 6.208 3.2 13.44 3.584 19.904 1.28 16.192-5.376 552.832-251.968 589.632-270.08C946.31104 80.64 772.99904 0 576.00704 0 257.92704 0 1.41504 211.776 0.00704 473.408c-1.152 210.176 138.432 301.312 206.4 362.56 23.872 21.504 15.744 58.56 3.2 90.048-16 38.4-13.056 55.36 0 61.44 24.128 11.136 118.08-53.44 177.6-60.928 3.648-0.448 15.488-2.112 18.176-1.088 55.808 14.08 113.088 20.992 170.624 20.864 318.208 0 576-211.776 576-472.896a398.208 398.208 0 0 0-63.04-214.464z" fill="#21AE3C" p-id="1231"></path></svg>