<?xml version="1.0" standalone="no"?><!DOCTYPE svg PUBLIC "-//W3C//DTD SVG 1.1//EN" "http://www.w3.org/Graphics/SVG/1.1/DTD/svg11.dtd"><svg t="1557279779323" class="icon" style="" viewBox="0 0 1024 1024" version="1.1" xmlns="http://www.w3.org/2000/svg" p-id="1124" xmlns:xlink="http://www.w3.org/1999/xlink" width="200" height="200"><defs><style type="text/css"></style></defs><path d="M473.770667 0l85.333333 0 0 362.666667-85.333333 0 0-362.666667Z" p-id="1125" fill="#FB720D"></path><path d="M682.666667 29.354667l0 45.568C857.28 143.36 981.333333 313.408 981.333333 512c0 258.794667-210.538667 469.333333-469.333333 469.333333S42.666667 770.794667 42.666667 512C42.666667 313.408 166.698667 143.36 341.333333 74.922667L341.333333 29.354667C142.698667 99.818667 0 289.514667 0 512c0 282.304 229.696 512 512 512s512-229.696 512-512C1024 289.514667 881.301333 99.818667 682.666667 29.354667z" p-id="1126" fill="#FB720D"></path></svg>