<?xml version="1.0" standalone="no"?><!DOCTYPE svg PUBLIC "-//W3C//DTD SVG 1.1//EN" "http://www.w3.org/Graphics/SVG/1.1/DTD/svg11.dtd"><svg t="1557206832701" class="icon" style="" viewBox="0 0 1024 1024" version="1.1" xmlns="http://www.w3.org/2000/svg" p-id="1043" xmlns:xlink="http://www.w3.org/1999/xlink" width="200" height="200"><defs><style type="text/css"></style></defs><path d="M509.44 1003.52c-271.36 0-492.8-221.44-492.8-492.8S236.8 17.92 509.44 17.92c271.36 0 492.8 221.44 492.8 492.8S780.8 1003.52 509.44 1003.52z m0-947.2C258.56 56.32 55.04 259.84 55.04 510.72s203.52 454.4 454.4 454.4 454.4-203.52 454.4-454.4-204.8-454.4-454.4-454.4z" p-id="1044" fill="#FB720D"></path><path d="M727.04 376.32c7.68-7.68 19.2-7.68 26.88 0 7.68 7.68 7.68 19.2 0 26.88L477.44 680.96c-7.68 7.68-19.2 7.68-26.88 0l-166.4-166.4c-7.68-7.68-7.68-19.2 0-26.88 7.68-7.68 19.2-7.68 26.88 0l153.6 153.6 262.4-264.96z" p-id="1045" fill="#FB720D"></path></svg>